<svg xmlns="http://www.w3.org/2000/svg" width="180.702" height="45" viewBox="0 0 180.702 45">
  <g id="Group_435" data-name="Group 435" transform="translate(-167.5 -342.644)">
    <path id="Path_830" data-name="Path 830" d="M232.474,375.476l-.892,1.953c2.374,1.084,3.775,2.287,3.748,3.217-.035,1.182-2.478,3.07-9.249,4.5a105.593,105.593,0,0,1-23.789,1.682c-20.34-.6-32.707-5.126-32.62-8.111.043-1.449,3.034-3.088,8.427-4.324a107.941,107.941,0,0,0,24.083,3.225q2.379.079,4.7.079a99.944,99.944,0,0,0,19.612-1.714c7.193-1.494,10.888-3.682,10.982-6.5s-3.448-5.25-10.526-7.218a107.756,107.756,0,0,0-24.154-3.245l-.071,2.146a105.586,105.586,0,0,1,23.65,3.168c6.673,1.855,8.994,3.9,8.955,5.078-.1,2.988-12.732,6.74-33.081,6.064a118.262,118.262,0,0,1-18.865-2.039,116.079,116.079,0,0,1,19.323-.9,124.19,124.19,0,0,1,16.477,1.533l.354-2.118a126.382,126.382,0,0,0-16.768-1.561,107.715,107.715,0,0,0-24.3,1.728l-.311.068c-6.335-1.821-8.556-3.8-8.518-4.953.028-.853,1.24-1.849,3.325-2.731a41.939,41.939,0,0,1,9.861-2.421c2.05-.295,4.271-.528,6.6-.693l-.152-2.142q-.882.062-1.743.138l49.134-12.6-.534-2.08-58.426,14.988.276,1.077a33.85,33.85,0,0,0-5.856,1.759c-3.015,1.277-4.574,2.837-4.634,4.638-.076,2.278,2.22,4.3,6.833,6.03-4.457,1.421-6.744,3.253-6.809,5.468-.083,2.82,3.467,5.233,10.549,7.172a107.737,107.737,0,0,0,24.154,3.149q2.1.062,4.166.061a100.853,100.853,0,0,0,20.131-1.789c7.184-1.521,10.868-3.721,10.951-6.541C237.534,378.779,235.851,377.017,232.474,375.476Z" transform="translate(0 -1.821)" fill="#f5f5f5"/>
    <g id="Group_433" data-name="Group 433" transform="translate(250.329 342.644)">
      <g id="Group_431" data-name="Group 431" transform="translate(0 0)">
        <path id="Path_831" data-name="Path 831" d="M1134.614,344.653a3.133,3.133,0,0,1,2.073.641,2.255,2.255,0,0,1,.767,1.832v4.26a2.371,2.371,0,0,1-.24,1.076,2.694,2.694,0,0,1-.63.824,2.826,2.826,0,0,1-.87.527,2.68,2.68,0,0,1-.962.183H1132.9v8.68h-2.909V344.653Zm-1.718,7.191h.618a1.106,1.106,0,0,0,.8-.311,1.086,1.086,0,0,0,.321-.817v-2.853a.874.874,0,0,0-.3-.736,1.2,1.2,0,0,0-.756-.23h-.687Z" transform="translate(-1103.086 -344.424)" fill="#f5f5f5"/>
        <path id="Path_832" data-name="Path 832" d="M1214.524,360.1a3.623,3.623,0,0,1-2.748,1.054,6.061,6.061,0,0,1-1.557-.183,2.772,2.772,0,0,1-1.168-.618,2.823,2.823,0,0,1-.744-1.168,5.55,5.55,0,0,1-.263-1.855V346.469a3.833,3.833,0,0,1,1.008-2.783,3.615,3.615,0,0,1,2.725-1.042,6.586,6.586,0,0,1,1.569.172,2.68,2.68,0,0,1,1.18.607,2.827,2.827,0,0,1,.744,1.179,5.669,5.669,0,0,1,.263,1.867v10.856A3.842,3.842,0,0,1,1214.524,360.1Zm-1.832-14.018q0-1.189-.87-1.189t-.87,1.189v11.638q0,1.189.87,1.189t.87-1.189Z" transform="translate(-1172.242 -342.644)" fill="#f5f5f5"/>
        <path id="Path_833" data-name="Path 833" d="M1054.173,359.521a1.407,1.407,0,0,0,.183.767.888.888,0,0,0,1.317-.011,1.356,1.356,0,0,0,.195-.756V344.452h2.817v14.932a3.767,3.767,0,0,1-.275,1.505,3.107,3.107,0,0,1-.756,1.074,3,3,0,0,1-1.145.648,4.8,4.8,0,0,1-1.443.208,4.211,4.211,0,0,1-2.748-.81,3.006,3.006,0,0,1-.985-2.465V344.452h2.84Z" transform="translate(-1033.398 -344.246)" fill="#f5f5f5"/>
        <path id="Path_834" data-name="Path 834" d="M901.51,351.278v6.046a4.424,4.424,0,0,1-.263,1.569,3.512,3.512,0,0,1-.744,1.2,3.267,3.267,0,0,1-1.168.779,4.692,4.692,0,0,1-4.306-.6,3.731,3.731,0,0,1-1.008-2.954V346.469a4.346,4.346,0,0,1,.275-1.58,3.423,3.423,0,0,1,.767-1.2,3.465,3.465,0,0,1,1.18-.767,4.034,4.034,0,0,1,1.511-.275,6.338,6.338,0,0,1,1.534.172,2.766,2.766,0,0,1,1.179.607,2.86,2.86,0,0,1,.767,1.179,5.444,5.444,0,0,1,.275,1.867V348.3h-2.771v-2.222a1.687,1.687,0,0,0-.217-.928.774.774,0,0,0-.7-.332.811.811,0,0,0-.744.344,1.742,1.742,0,0,0-.218.939v11.634q0,1.26.893,1.26a.868.868,0,0,0,.71-.344,1.424,1.424,0,0,0,.275-.916v-4.214h-.985v-2.244Z" transform="translate(-894.021 -342.644)" fill="#f5f5f5"/>
        <path id="Path_835" data-name="Path 835" d="M978.06,344.653a3,3,0,0,1,2.027.641,2.288,2.288,0,0,1,.744,1.832v3.779a3.249,3.249,0,0,1-.435,1.649,1.726,1.726,0,0,1-1.26.893l2.061,9.229h-3l-1.878-9.459H976.3v9.459H973.48V344.653Zm-1.763,7.191h.641a.9.9,0,0,0,.721-.309,1.211,1.211,0,0,0,.263-.813v-2.977q0-.962-.916-.962h-.71Z" transform="translate(-964.421 -344.424)" fill="#f5f5f5"/>
      </g>
      <g id="Group_432" data-name="Group 432" transform="translate(0 26.427)">
        <path id="Path_836" data-name="Path 836" d="M978.958,591.892a3.623,3.623,0,0,1-2.748,1.054,6.06,6.06,0,0,1-1.557-.183,2.771,2.771,0,0,1-1.168-.618,2.825,2.825,0,0,1-.744-1.168,5.554,5.554,0,0,1-.263-1.855V578.266a3.833,3.833,0,0,1,1.008-2.783,3.615,3.615,0,0,1,2.725-1.042,6.591,6.591,0,0,1,1.569.172,2.681,2.681,0,0,1,1.179.607,2.827,2.827,0,0,1,.744,1.179,5.667,5.667,0,0,1,.264,1.867v10.856A3.842,3.842,0,0,1,978.958,591.892Zm-1.832-14.018q0-1.189-.87-1.189t-.87,1.189v11.638q0,1.189.87,1.189t.87-1.189Z" transform="translate(-963.532 -574.441)" fill="#f5f5f5"/>
        <path id="Path_837" data-name="Path 837" d="M901.4,586.671V589.1a4.636,4.636,0,0,1-.252,1.572,3.427,3.427,0,0,1-.733,1.211,3.268,3.268,0,0,1-1.168.786,4.065,4.065,0,0,1-1.535.278,5.961,5.961,0,0,1-1.534-.183,2.77,2.77,0,0,1-1.168-.618,2.732,2.732,0,0,1-.733-1.168,5.782,5.782,0,0,1-.252-1.855V578.266a3.885,3.885,0,0,1,.985-2.783,3.539,3.539,0,0,1,2.7-1.042,6.343,6.343,0,0,1,1.535.172,2.68,2.68,0,0,1,1.168.607,2.74,2.74,0,0,1,.733,1.179,5.906,5.906,0,0,1,.252,1.867v2.382h-2.771v-2.771q0-1.19-.87-1.191t-.87,1.189v11.638q0,1.189.87,1.189t.87-1.191v-2.84Z" transform="translate(-894.021 -574.441)" fill="#f5f5f5"/>
        <path id="Path_838" data-name="Path 838" d="M1059.6,576.449v18.024h-2.565l-1.924-9.069h-.046v9.069h-2.725V576.449h2.474l1.969,9.458h.046v-9.458Z" transform="translate(-1034.289 -576.22)" fill="#f5f5f5"/>
        <path id="Path_839" data-name="Path 839" d="M1128.142,577.807a3.765,3.765,0,0,1,.985-2.4,3.483,3.483,0,0,1,2.679-.962,5.867,5.867,0,0,1,1.512.183,2.716,2.716,0,0,1,1.168.63,2.928,2.928,0,0,1,.744,1.179,5.483,5.483,0,0,1,.263,1.832v2.313h-2.771v-2.7q0-1.19-.893-1.191t-.893,1.191v1.374a2.294,2.294,0,0,0,.263,1.191,6.04,6.04,0,0,0,.469.687q.091.137.481.6t.882,1.054q.492.6.973,1.225t.8,1.111a3.508,3.508,0,0,1,.263.481,5.856,5.856,0,0,1,.229.584q.1.309.172.6a3.932,3.932,0,0,1,.092.515,11.476,11.476,0,0,1,.023,1.282,10.13,10.13,0,0,1-.137,1.4,3.445,3.445,0,0,1-1.157,2.21,4.005,4.005,0,0,1-2.622.767,4.161,4.161,0,0,1-2.7-.8,3.088,3.088,0,0,1-.985-2.542v-2.634h2.771v2.68a1.313,1.313,0,0,0,.263.893.886.886,0,0,0,.7.3.789.789,0,0,0,.687-.321,1.551,1.551,0,0,0,.252-.847,15.337,15.337,0,0,0,0-1.672,3.207,3.207,0,0,0-.344-1.283,8.076,8.076,0,0,0-.664-1q-.412-.538-.87-1.088t-.893-1.042a10.5,10.5,0,0,1-.71-.882,5.556,5.556,0,0,1-.79-1.386,5.07,5.07,0,0,1-.286-1.477q-.023-.55,0-1.1T1128.142,577.807Z" transform="translate(-1101.309 -574.441)" fill="#f5f5f5"/>
        <path id="Path_840" data-name="Path 840" d="M1209.479,591.318a1.406,1.406,0,0,0,.183.767.888.888,0,0,0,1.317-.011,1.358,1.358,0,0,0,.195-.756V576.249h2.817v14.932a3.77,3.77,0,0,1-.275,1.505,3.113,3.113,0,0,1-.756,1.074,3.007,3.007,0,0,1-1.145.648,4.8,4.8,0,0,1-1.443.208,4.212,4.212,0,0,1-2.748-.81,3.006,3.006,0,0,1-.985-2.465V576.249h2.84Z" transform="translate(-1170.998 -576.043)" fill="#f5f5f5"/>
        <path id="Path_841" data-name="Path 841" d="M1393.935,591.892a3.624,3.624,0,0,1-2.748,1.054,6.061,6.061,0,0,1-1.557-.183,2.772,2.772,0,0,1-1.168-.618,2.823,2.823,0,0,1-.744-1.168,5.554,5.554,0,0,1-.263-1.855V578.266a3.833,3.833,0,0,1,1.008-2.783,3.615,3.615,0,0,1,2.725-1.042,6.59,6.59,0,0,1,1.569.172,2.68,2.68,0,0,1,1.18.607,2.828,2.828,0,0,1,.744,1.179,5.666,5.666,0,0,1,.263,1.867v10.856A3.842,3.842,0,0,1,1393.935,591.892Zm-1.832-14.018q0-1.189-.87-1.189t-.87,1.189v11.638q0,1.189.87,1.189t.87-1.189Z" transform="translate(-1331.199 -574.441)" fill="#f5f5f5"/>
        <path id="Path_842" data-name="Path 842" d="M1466.672,594.473v-15.6H1464.7v-2.428h6.893v2.428h-2.016v15.6Z" transform="translate(-1399.64 -576.22)" fill="#f5f5f5"/>
        <path id="Path_843" data-name="Path 843" d="M1536.529,576.449h6.435v2.382h-3.55v4.557h3.55v2.29h-3.55v6.5h3.55v2.29h-6.435Z" transform="translate(-1463.279 -576.22)" fill="#f5f5f5"/>
        <path id="Path_844" data-name="Path 844" d="M1613.722,586.671V589.1a4.633,4.633,0,0,1-.252,1.572,3.424,3.424,0,0,1-.733,1.211,3.268,3.268,0,0,1-1.168.786,4.064,4.064,0,0,1-1.535.278,5.96,5.96,0,0,1-1.534-.183,2.771,2.771,0,0,1-1.168-.618,2.733,2.733,0,0,1-.733-1.168,5.782,5.782,0,0,1-.252-1.855V578.266a3.886,3.886,0,0,1,.985-2.783,3.539,3.539,0,0,1,2.7-1.042,6.343,6.343,0,0,1,1.535.172,2.68,2.68,0,0,1,1.168.607,2.738,2.738,0,0,1,.733,1.179,5.9,5.9,0,0,1,.252,1.867v2.382h-2.771v-2.771q0-1.19-.87-1.191t-.87,1.189v11.638q0,1.189.87,1.189t.87-1.191v-2.84Z" transform="translate(-1525.137 -574.441)" fill="#f5f5f5"/>
        <path id="Path_845" data-name="Path 845" d="M1686.952,576.449l1.832,18.024h-2.955l-.115-2.2h-2.038l-.16,2.2h-2.931l2.221-18.024Zm-1.511,13.741-.55-11.107h-.023l-.893,11.107Z" transform="translate(-1590.911 -576.22)" fill="#f5f5f5"/>
        <path id="Path_846" data-name="Path 846" d="M1291.842,576.449v.644c0,4.17-.809,9.057-1.54,9.057-.833,0-1.523-5.516-1.523-9.066v-.635H1285.3v18.024h2.692V586.2c.446,1.4,1.143,2.534,2.324,2.534s1.878-1.155,2.324-2.565v8.3h2.692V576.449Z" transform="translate(-1240.687 -576.22)" fill="#f5f5f5"/>
      </g>
    </g>
  </g>
</svg>
