<svg xmlns="http://www.w3.org/2000/svg" width="698.199" height="698.199" viewBox="0 0 698.199 698.199">
  <path id="Path_57" data-name="Path 57" d="M286.6,138.717,213.616-30.049l1.6,184.02L80.278,29.647l75.891,167.463L-17.4,138.717,119.678,260.66-62.5,278.3l174.548,55.344L-47.24,424.265,134.6,403.434,25.741,551.369l157.7-93.4L143.825,637.636,250.106,487.82,286.6,668.15l36.5-180.33L429.375,637.636,389.762,457.969l157.7,93.4L438.591,403.434,620.44,424.265l-159.289-90.62L635.7,278.3,453.521,260.66,590.59,138.717l-173.56,58.393L492.921,29.647,357.986,153.971l1.6-184.02Z" transform="translate(62.5 30.049)" fill="#4d4a99"/>
</svg>
