<svg xmlns="http://www.w3.org/2000/svg" width="300" height="300" viewBox="0 0 300 300">
  <path id="Path_1632" data-name="Path 1632" d="M87.5,42.466,56.141-30.049l.686,79.069L-1.152-4.4,31.457,67.556-43.12,42.466l58.9,52.4-78.278,7.58,75,23.78-68.443,38.937,78.134-8.951-46.776,63.564,67.759-40.132-17.021,77.2L71.82,192.467,87.5,269.951l15.681-77.484,45.667,64.373-17.021-77.2,67.759,40.132-46.778-63.564,78.136,8.951L162.5,126.222l75-23.78-78.278-7.58,58.9-52.4-74.575,25.09L176.152-4.4,118.173,49.02l.686-79.069Z" transform="translate(62.5 30.049)" fill="#4d4a99"/>
</svg>
