<?xml version="1.0" encoding="UTF-8"?>
<svg id="a" data-name="Camada 1" xmlns="http://www.w3.org/2000/svg" viewBox="0 0 140.35 140.35">
  <defs>
    <style>
      .b {
        fill: #1c1d36;
      }
    </style>
  </defs>
  <polygon class="b" points="70.18 33.93 84.85 0 84.53 36.99 111.65 12 96.4 45.66 131.29 33.93 103.73 58.44 140.35 61.99 105.27 73.11 137.29 91.33 100.73 87.14 122.62 116.88 90.92 98.1 98.88 134.22 77.51 104.1 70.18 140.35 62.84 104.1 41.48 134.22 49.44 98.1 17.74 116.88 39.62 87.14 3.07 91.33 35.09 73.11 0 61.99 36.62 58.44 9.07 33.93 43.96 45.66 28.7 12 55.83 36.99 55.51 0 70.18 33.93"/>
</svg>