<svg xmlns="http://www.w3.org/2000/svg" width="304" height="169.778" viewBox="0 0 304 169.778">
  <g id="Group_465" data-name="Group 465" transform="translate(-603.953 -341.815)">
    <path id="Path_876" data-name="Path 876" d="M914.215,512.619c-38.713,0-69.039-17.245-69.039-39.259S875.5,434.1,914.215,434.1s69.039,17.245,69.039,39.259S952.928,512.619,914.215,512.619Zm0-73.295c-35.188,0-63.815,15.269-63.815,34.036S879.027,507.4,914.215,507.4s63.815-15.269,63.815-34.036S949.4,439.324,914.215,439.324Z" transform="translate(-138.111 -52.838)" fill="#f6f6f6"/>
    <path id="Path_877" data-name="Path 877" d="M676.468,341.815H603.953v5.223H637.6V480.632h5.223V347.039h33.646Z" transform="translate(0 0)" fill="#f6f6f6"/>
    <path id="Path_878" data-name="Path 878" d="M768.327,468.548c.507-5.813,5.552-17.749,10.033-28.347,7.31-17.291,9.685-23.618,7.627-26.722a3.56,3.56,0,0,0-3.023-1.593c-6.268,0-19.806,16.4-22.455,19.69-4.844,6.01-16.112,20.939-16.112,29.747v39.332h5.224v-28.6h14.831l66.713,79.657,4-3.353Zm-18.707-7.226c0-10.03,23.653-38.524,31.676-43.486-.921,4.184-4.791,13.339-7.747,20.329-4.532,10.721-9.2,21.76-10.264,28.666H749.62Z" transform="translate(-80.41 -40.118)" fill="#f6f6f6"/>
    <path id="Path_879" data-name="Path 879" d="M1194.021,500.654H1188.8V461.322c0-8.808,11.267-23.737,16.112-29.747,2.65-3.288,16.188-19.69,22.455-19.69,5.956,0,15.439,18.146,15.439,33.233,0,7.842-2.4,14.153-7.125,18.761-5.566,5.424-14.18,8.175-25.607,8.175v-5.223c15.656,0,24.729-5.436,26.967-16.155,2.953-14.155-6.688-31.635-9.865-33.53-5.963,1.442-33.153,33.422-33.153,44.176Z" transform="translate(-334.85 -40.118)" fill="#f6f6f6"/>
  </g>
</svg>
