<svg xmlns="http://www.w3.org/2000/svg" width="466.619" height="466.619" viewBox="0 0 466.619 466.619">
  <g id="Group_473" data-name="Group 473" transform="matrix(0.695, 0.719, -0.719, 0.695, 236.033, -104.999)">
    <path id="Path_880" data-name="Path 880" d="M284.879,122.716h-.621q-1.032,0-2.061.02h-.03l-.113,0-.479.009,2.592,132.1.712-.007V122.716Zm-29.564,2.641-.186.034-.062.011-.1.017-.2.036-.014,0-.121.023-.017,0-.226.042-.025,0-.35.066-.052.01-.151.029-.087.016-.084.016-.118.023-.1.018-.1.019-.086.017-.106.021-.142.027-.017,0-.911.181,26.1,129.518.637-.121-23.5-130.017Zm-28.607,7.9q-.574.215-1.146.437l-.022.008-.151.059-.093.035-.039.015q-.661.256-1.319.519l-.092.036-.048.019-.169.068L272.654,257.14l.6-.232L226.707,133.259Zm-26.717,12.929-.2.123q-1.046.63-2.082,1.276l0,0-.147.092-.079.049-.022.014-.276.173L267.435,259.8l.563-.346L199.991,146.188ZM176.021,163.7q-.688.6-1.37,1.216l-.032.029-.119.106-.06.054-.059.053-.131.117-.024.023c-.222.2-.444.4-.665.6l89.081,97.553.5-.452-87.124-99.3Zm-20.469,21.5q-.446.563-.888,1.128l-.016.02c-.031.04-.062.081-.094.12l-.056.072-.059.076-.06.076-.015.02-.135.174-.007.01q-.351.454-.7.91l105.02,80.131.413-.531-103.4-82.206ZM139.243,210q-.289.541-.575,1.083l-.01.02-.085.161-.02.035c-.022.044-.046.089-.069.134l-.023.043-.073.14-.024.048-.079.151a.292.292,0,0,0-.016.032l-.081.156,0,.008-.09.174-.007.013q-.188.364-.374.73l117.659,60.04.3-.579L139.243,210Zm-11.594,27.329-.007.022c-.018.057-.037.114-.054.17l0,.007c-.02.064-.04.128-.061.192l0,.006q-.156.489-.308.979l0,0q-.275.885-.542,1.776l126.547,37.852.189-.611-125.759-40.4ZM121.17,266.3c-.035.271-.07.541-.1.812l0,.023-.02.155c0,.016,0,.035-.006.052-.006.052-.013.105-.02.159,0,.021-.005.047-.009.068,0,.042-.01.084-.015.126,0,.016,0,.032-.006.048-.007.058-.014.116-.021.175,0,.011,0,.026,0,.037q-.1.811-.187,1.625l131.288,14.472.08-.659L121.17,266.3ZM251.9,289.6l-131.93,6.369q.029.621.064,1.239v0c0,.066.007.132.011.2v.009c0,.058.007.117.011.175,0,.022,0,.043,0,.065l.007.113c0,.039,0,.085.007.122l0,.088.006.1,0,.071c0,.049.006.108.01.157l0,.08c0,.033,0,.056.006.089l.01.151c0,.022,0,.04,0,.062l.01.153c0,.006,0,.015,0,.021.009.135.017.271.028.406l131.778-8.981-.04-.687Zm.811,5.9L124.048,325.373c.04.167.08.34.119.505,0,.018.009.036.013.054s.015.06.02.086c.012.046.022.093.033.139l.014.059.029.122c0,.02.011.045.016.066l.034.143c.008.031.015.064.023.094s.008.035.013.052c.152.632.307,1.259.467,1.889l128.034-32.467-.152-.623Zm1.806,5.47-121.165,52.6.029.065.023.053c.16.369.325.744.488,1.112,0,.009.007.017.011.025l.139.312.033.072.05.113c.014.033.03.066.044.1s.019.043.031.068l.062.139.026.058.051.113c.008.018.02.044.029.063.017.04.037.082.055.122.01.024.025.055.035.078l.03.067.075.165.006.014.128.278,120.083-55.028-.264-.591Zm2.823,5.166L147.574,379.621q.631.942,1.274,1.876l0,.005.108.157.03.043.058.084.39.561,108.277-75.669-.376-.55Zm3.8,4.7-94.913,91.885.424.437.028.028.088.09c.591.605,1.179,1.2,1.78,1.795l93.069-93.754-.476-.481Zm4.586,3.964L188.689,422.119q1.165.837,2.345,1.654l.083.057.022.015.252.174,74.88-108.841-.547-.384Zm5.1,3.009L214.254,437.2q.741.352,1.488.7l.012,0,.166.076.049.024.1.046.157.072.024.011c.332.152.667.3,1,.454L271.41,318.074l-.588-.271Zm5.414,1.99L242.112,447.433c1.058.283,2.134.559,3.2.821l31.545-128.3-.621-.16Zm5.792,1-10.67,131.692.193.016.035,0,.139.011.109.008.089.007.12.009h0c.867.066,1.734.127,2.605.18l8.057-131.878-.68-.048Zm6.9-.12-.664.071,12.773,131.505q1.647-.159,3.285-.352L288.932,320.669Zm5.7-1.193-.613.18L330.2,446.725c.253-.071.507-.145.76-.219l.078-.022.042-.012q1.145-.334,2.285-.683L294.629,319.476Zm5.356-2.194-.58.294,58.487,118.465c.753-.371,1.509-.752,2.254-1.135l.139-.072.008,0,.545-.282L299.985,317.282ZM305,314.071l-.534.405,78.746,106.076q1.326-.984,2.632-2L305,314.071Zm4.45-4.132-.457.5,96.369,90.355.042-.045.025-.026.145-.156.011-.01c.084-.092.164-.176.247-.266l.006-.006.148-.16.03-.032.088-.1.072-.077.06-.065.086-.094.045-.05.1-.108.026-.029.123-.133.017-.019.406-.445,0,0c.085-.093.169-.185.253-.279l.038-.041.093-.1.169-.186-98.146-88.421Zm3.614-4.817-.354.56L423.642,377.4c.13-.2.263-.409.393-.61,0,0,.006-.009.008-.014.065-.1.124-.194.188-.294l.033-.052c.03-.048.059-.092.088-.14.012-.017.023-.034.034-.052l.1-.157.022-.035.057-.091.028-.043.094-.148.031-.05c.02-.03.033-.053.052-.084l.074-.116.04-.066.075-.119.02-.032.1-.162h0l.326-.527L313.066,305.122Zm2.618-5.232-.241.6,122,50.634,0-.008.061-.148c.01-.024.017-.042.027-.066.02-.046.038-.093.057-.139.01-.024.016-.039.026-.063s.031-.077.048-.115c.006-.014.012-.03.017-.044.023-.053.044-.107.066-.16l.015-.035q.465-1.138.914-2.284L315.684,299.889Zm1.606-5.537-.131.633,129.128,27.795q.085-.39.167-.782c0-.021.006-.03.011-.051.011-.055.022-.11.034-.165,0-.016,0-.023.007-.039.011-.051.022-.1.032-.152,0-.011,0-.024.006-.034q.21-1.006.4-2.014L317.29,294.353Zm.606-6.019-.015.7,132.014,4.275q.033-1.017.053-2.038c0-.011,0-.032,0-.043,0-.057,0-.113,0-.169,0-.017,0-.05,0-.066q0-.051,0-.1c0-.028,0-.06,0-.088l0-.139c0-.033,0-.062,0-.1s0-.055,0-.081,0-.085,0-.124,0-.077,0-.116,0-.043,0-.071l0-.167v0L317.9,288.334ZM447.709,260.4l-130.27,21.813.1.648,130.681-19.2c-.012-.086-.026-.18-.039-.265-.006-.035-.011-.071-.016-.107l-.007-.049q-.168-1.116-.349-2.228a.063.063,0,0,1,0-.014c-.008-.046-.015-.093-.023-.14-.025-.154-.051-.307-.077-.461Zm-7.526-28.718L315.975,276.63l.212.6L441.275,234.8l-.006-.018-.049-.143c-.01-.03-.017-.048-.027-.079s-.019-.054-.028-.081c-.017-.05-.036-.1-.053-.155,0-.013-.008-.026-.013-.038-.215-.629-.437-1.263-.66-1.888-.005-.018-.012-.035-.019-.053-.014-.04-.028-.076-.041-.115q-.1-.273-.2-.547ZM427.606,204.8,313.5,271.353l.325.571,115.411-64.257q-.6-1.081-1.218-2.151l-.008-.014-.07-.122c-.111-.193-.226-.391-.338-.583Zm-17.192-24.2L310.028,266.462l.434.517,102.075-83.851q-1.049-1.278-2.121-2.533Zm-21.226-20.75L305.683,262.214l.518.431,85.526-100.686-.348-.3-.114-.1-.013-.01q-1.024-.864-2.062-1.711ZM364.6,143.213,300.731,258.861l.572.323,66.176-114.345-.168-.1-.021-.012-.125-.072q-.857-.494-1.721-.978l-.053-.03-.09-.051-.149-.083-.008,0-.539-.3Zm-27.167-11.952L295.417,256.52l.6.21,44.536-124.386q-1.25-.448-2.509-.877l-.071-.023-.055-.019-.485-.163ZM308.561,124.4l-18.78,130.781.647.1,21.4-130.379c-.3-.049-.6-.1-.9-.145l-.009,0c-.767-.122-1.529-.237-2.3-.348h0l-.049-.007Z" transform="translate(-43.502 -50.748)" fill="#cfe46b"/>
    <g id="Group_469" data-name="Group 469" transform="translate(41.362 27.173)">
      <g id="Group_468" data-name="Group 468" transform="translate(0)">
        <g id="Group_467" data-name="Group 467">
          <path id="Path_881" data-name="Path 881" d="M69.686,323.754a3.386,3.386,0,0,1-1.616,2.262,3.655,3.655,0,0,1-2.717.143,5.045,5.045,0,0,1-.732-.281q-.418-.192-.887-.4l-9.866-4.616-1.393,4.964-2.9-1.343.942-3.355a2.429,2.429,0,0,0,.02-1.617,2.364,2.364,0,0,0-1.229-1.062l-4.328-2.043.98-3.5,6.068,2.834,2.04-7.271,2.9,1.343-2.05,7.306,11.4,5.347.545-.6-2.936-8.214,2.757-1.225,1.484,3.848q.576,1.443.954,2.511a15.248,15.248,0,0,1,.565,1.95,8.086,8.086,0,0,1,.192,1.6A5.1,5.1,0,0,1,69.686,323.754Z" transform="translate(-44.976 -162.578)" fill="#cfe46b"/>
          <path id="Path_882" data-name="Path 882" d="M85.655,284.968l-13.421-8.312L70.4,281.122l-2.713-1.706L71,271.359l4.556,2.857.083-.2a10.687,10.687,0,0,1-2.552-3.956,6.362,6.362,0,0,1,.331-4.574l.83-2.014,3.343,2.083-1.244,3.022a6.67,6.67,0,0,0-.588,2.526,4.476,4.476,0,0,0,.588,2.147,15.9,15.9,0,0,0,.929,1.462,5.947,5.947,0,0,0,1.79,1.66l8.068,5.009Z" transform="translate(-55.906 -140.915)" fill="#cfe46b"/>
          <path id="Path_883" data-name="Path 883" d="M107.2,247.362a8.569,8.569,0,0,1-2.1,2.574,6.626,6.626,0,0,1-2.567,1.293,6.973,6.973,0,0,1-2.9.068,10.006,10.006,0,0,1-3.118-1.152,14.342,14.342,0,0,1-3.85-3.012,10.736,10.736,0,0,1-2.157-3.629,9.341,9.341,0,0,1-.461-3.953,10,10,0,0,1,1.253-3.935,8.567,8.567,0,0,1,2.094-2.574,6.652,6.652,0,0,1,2.567-1.294,6.975,6.975,0,0,1,2.92-.059,10.078,10.078,0,0,1,3.1,1.143,14.318,14.318,0,0,1,3.85,3.013,10.731,10.731,0,0,1,2.158,3.629,9.354,9.354,0,0,1,.461,3.953A9.984,9.984,0,0,1,107.2,247.362Zm-2.574-1.722a4.915,4.915,0,0,0,.56-3.884,6.9,6.9,0,0,0-2.515-3.433l-1.9-1.513c-.273-.206-.527-.4-.764-.57a6.221,6.221,0,0,0-.639-.418,4.006,4.006,0,0,0-3.2-.554,4.118,4.118,0,0,0-2.292,2.069,4.919,4.919,0,0,0-.56,3.884,6.9,6.9,0,0,0,2.514,3.433l1.9,1.513q.41.311.764.57a6.233,6.233,0,0,0,.639.418,4,4,0,0,0,3.2.555A4.112,4.112,0,0,0,104.626,245.641Z" transform="translate(-66.649 -125.558)" fill="#cfe46b"/>
          <path id="Path_884" data-name="Path 884" d="M109.028,204.04l2.269-3.153,3.172,3.176.085-.118a15.846,15.846,0,0,1-.927-2.1,8.092,8.092,0,0,1-.447-2.021,5.463,5.463,0,0,1,.2-1.983,6.49,6.49,0,0,1,1-1.984,5,5,0,0,1,4.045-2.389,8.914,8.914,0,0,1,5.178,2,19.327,19.327,0,0,1,3.317,3.036,13.141,13.141,0,0,1,2.269,3.623,9.146,9.146,0,0,1,.7,3.879,6.923,6.923,0,0,1-1.4,3.8,5.448,5.448,0,0,1-2.788,2.2,5.173,5.173,0,0,1-3.339-.21l-.105.147,7.617,7.627-2.269,3.153Zm16.2,4.9a4.8,4.8,0,0,0,1-3.909,7.378,7.378,0,0,0-2.042-3.595l-1.839-1.859a5.721,5.721,0,0,0-.54-.523c-.212-.182-.426-.351-.642-.507a4.664,4.664,0,0,0-2.78-1.016,2.962,2.962,0,0,0-2.354,1.438,4.95,4.95,0,0,0-.656,4.268,8.755,8.755,0,0,0,.706,1.939,7.5,7.5,0,0,0,1.441,1.977l2.675,2.685a2.717,2.717,0,0,0,2.52.941A4.108,4.108,0,0,0,125.226,208.941Z" transform="translate(-75.808 -107.22)" fill="#cfe46b"/>
          <path id="Path_885" data-name="Path 885" d="M137.458,158.081a2.739,2.739,0,0,1-1.688,1.064,1.7,1.7,0,0,1-1.3-.448,4.073,4.073,0,0,1-.353-.372,6.186,6.186,0,0,1-.386-.5,2.65,2.65,0,0,1-.6-1.65,2.98,2.98,0,0,1,.939-1.871,2.74,2.74,0,0,1,1.688-1.064,1.7,1.7,0,0,1,1.3.448,4.3,4.3,0,0,1,.355.372q.191.224.385.5a2.656,2.656,0,0,1,.6,1.651A2.975,2.975,0,0,1,137.458,158.081Zm15.265,16.773a3.466,3.466,0,0,1-2.432,1.32,3.265,3.265,0,0,1-2.331-.947,6.057,6.057,0,0,1-.648-.69q-.3-.372-.709-.893l-6.492-8.722-4.257,4.667-1.991-2.5,6.924-7.591,9.559,12.847.7-.341-.033-8.53,2.968-.29.184,4q.074,1.591.038,2.787a15.246,15.246,0,0,1-.186,2.09,6.018,6.018,0,0,1-.468,1.563A4.982,4.982,0,0,1,152.723,174.854Z" transform="translate(-87.411 -87.854)" fill="#cfe46b"/>
          <path id="Path_886" data-name="Path 886" d="M186.118,149.683a6.964,6.964,0,0,1-5.569,2.006,8.418,8.418,0,0,1-5.213-3.117,14.648,14.648,0,0,1-2.538-4.024,10.982,10.982,0,0,1-.883-4.14,9.477,9.477,0,0,1,.8-3.9A9.312,9.312,0,0,1,175.2,133.2a9.48,9.48,0,0,1,2.253-1.5,6.171,6.171,0,0,1,2.15-.571,5.606,5.606,0,0,1,1.993.216,6.428,6.428,0,0,1,1.781.857l-1.509,3.189a3.959,3.959,0,0,0-2.459-.725,4.465,4.465,0,0,0-2.361,1.212,4.7,4.7,0,0,0-1.687,3.177,6.727,6.727,0,0,0,1.2,4.124l1.156,1.882q.279.432.513.756c.157.217.322.426.5.627a3.608,3.608,0,0,0,5.709.423,5.648,5.648,0,0,0,.806-.87,3.664,3.664,0,0,0,.578-1.272,10.161,10.161,0,0,0,.279-1.975,20.773,20.773,0,0,0-.088-2.978l2.993-.486a21.491,21.491,0,0,1,.283,3.146,11.511,11.511,0,0,1-.28,2.721,7.724,7.724,0,0,1-1,2.388A9.866,9.866,0,0,1,186.118,149.683Z" transform="translate(-106.079 -77.205)" fill="#cfe46b"/>
          <path id="Path_887" data-name="Path 887" d="M216.3,123.335a4.735,4.735,0,0,1-4.482.781,9.173,9.173,0,0,1-4.145-3.674,19.92,19.92,0,0,1-2.1-3.971,13.345,13.345,0,0,1-.948-4.148,8.926,8.926,0,0,1,.6-3.844,6.7,6.7,0,0,1,2.545-3.063,4.778,4.778,0,0,1,6.348.273l.15-.1-1.459-3.094,3.206-2.2,6.694,14.337,1.887-1.292,1.316,2.884-1.947,1.333a3.4,3.4,0,0,1-2.764.75,2.9,2.9,0,0,1-1.871-1.8l-.414-.861-.119.082a11.632,11.632,0,0,1-.077,4.321A5.444,5.444,0,0,1,216.3,123.335Zm-.5-3.488a4.82,4.82,0,0,0,2.007-3.751,9.95,9.95,0,0,0-.035-2.043,7.505,7.505,0,0,0-.684-2.348l-1.6-3.434a2.77,2.77,0,0,0-2.022-1.762,3.921,3.921,0,0,0-2.925.837,4.483,4.483,0,0,0-2.15,3.255,7.711,7.711,0,0,0,.76,4.033l1.1,2.373a5.556,5.556,0,0,0,.331.675q.206.366.432.694a4.9,4.9,0,0,0,2.224,1.93A2.69,2.69,0,0,0,215.8,119.847Z" transform="translate(-121.815 -62.372)" fill="#cfe46b"/>
          <path id="Path_888" data-name="Path 888" d="M249.1,96.557a3.384,3.384,0,0,1-2.751.423,3.5,3.5,0,0,1-1.857-1.772,10.741,10.741,0,0,1-.686-1.772l-5.6-18.428-5.461,2.875-.99-3.048,8.962-4.719L247.771,93.4l.792-.13,2.995-8.183,2.858.752-1.342,4.153q-.5,1.537-.951,2.635a13.142,13.142,0,0,1-.911,1.854,6.308,6.308,0,0,1-.981,1.255A4.954,4.954,0,0,1,249.1,96.557Z" transform="translate(-134.884 -47.844)" fill="#cfe46b"/>
          <path id="Path_889" data-name="Path 889" d="M402.56,54.368a2.9,2.9,0,0,1-2.149-.563,2.446,2.446,0,0,1-.85-1.779,4.824,4.824,0,0,1,.047-.913l3.077-23.681,3.767-.257-3.129,23.976,2.608-.178-.4,3.193Z" transform="translate(-215.654 -27.173)" fill="#cfe46b"/>
          <path id="Path_890" data-name="Path 890" d="M432.236,60.9a2.943,2.943,0,0,1-2.006-.682,2.29,2.29,0,0,1-.719-1.826,4.386,4.386,0,0,1,.124-1.051l.156-.688-.146,0a10.69,10.69,0,0,1-2.608,3.448,5.413,5.413,0,0,1-3.593,1.111,4.739,4.739,0,0,1-4-1.945A8.212,8.212,0,0,1,418.1,54.2a18.576,18.576,0,0,1,.686-4.783,13.738,13.738,0,0,1,1.856-4.077,9.7,9.7,0,0,1,2.89-2.809,6.85,6.85,0,0,1,3.791-1.017,5.349,5.349,0,0,1,3.18,1.007,3.948,3.948,0,0,1,1.6,2.656l.181,0,.663-3.149,3.775.054-3.382,15.673,2.432.035-.662,3.149ZM424.943,58A4.052,4.052,0,0,0,427,57.521a6.611,6.611,0,0,0,1.635-1.284,8.448,8.448,0,0,0,2.129-4.181l.816-3.8a2.685,2.685,0,0,0-.692-2.352,3.563,3.563,0,0,0-1.2-.816A4.392,4.392,0,0,0,428,44.755a4.53,4.53,0,0,0-3.4,1.241,7.375,7.375,0,0,0-1.833,3.767l-.582,2.642q-.079.435-.141.978t-.068.98a4.241,4.241,0,0,0,.707,2.606A2.647,2.647,0,0,0,424.943,58Z" transform="translate(-224.58 -34.075)" fill="#cfe46b"/>
          <path id="Path_891" data-name="Path 891" d="M463.24,58.408a3.654,3.654,0,0,1-2.468-1.019,2.738,2.738,0,0,1-.6-2.178c.019-.192.054-.408.1-.646s.109-.475.182-.711L463.9,42.673l-2.745-.281.935-3.079,1.409.143a1.861,1.861,0,0,0,1.47-.287,3,3,0,0,0,.7-1.352l.986-3.22,3.5.358-1.535,5.026,3.757.384-.935,3.079-3.793-.387L463.886,55.3l3.648.373-.935,3.08Z" transform="translate(-244.823 -30.747)" fill="#cfe46b"/>
          <path id="Path_892" data-name="Path 892" d="M483.854,58.848a2.9,2.9,0,0,1-1.967-1.034,2.449,2.449,0,0,1-.424-1.926,4.807,4.807,0,0,1,.252-.879l5.5-14.741,3.728.6-5.621,15.016,2.4.387-1.112,3.021Zm6.518-21.491a2.213,2.213,0,0,1-1.437-.673,1.423,1.423,0,0,1-.292-1.151,7.528,7.528,0,0,1,.381-1.226A2.7,2.7,0,0,1,490,33.049a2.588,2.588,0,0,1,1.918-.26,2.21,2.21,0,0,1,1.436.673,1.421,1.421,0,0,1,.293,1.151,7.584,7.584,0,0,1-.381,1.226,2.7,2.7,0,0,1-.975,1.258A2.592,2.592,0,0,1,490.373,37.357Z" transform="translate(-255.062 -29.846)" fill="#cfe46b"/>
          <path id="Path_893" data-name="Path 893" d="M497.614,68.457,505.8,51.032l3.666.9-1.741,3.721.176.044a9.479,9.479,0,0,1,3.193-2.634,5.421,5.421,0,0,1,3.693-.268,4.464,4.464,0,0,1,3.114,2.151,5.476,5.476,0,0,1,.25,3.913,10.141,10.141,0,0,1-.361,1.164q-.215.564-.529,1.234l-3.7,7.876,2.22.547L514.428,72.6l-2.785-.687a2.8,2.8,0,0,1-1.7-1.055,2.235,2.235,0,0,1-.262-1.9c.035-.142.065-.265.092-.37a2.54,2.54,0,0,1,.187-.459l3.542-7.54a10.225,10.225,0,0,0,.689-1.886,2.9,2.9,0,0,0-.1-2.025,2.378,2.378,0,0,0-1.673-1.1,4.3,4.3,0,0,0-3.59.76,8.948,8.948,0,0,0-1.822,1.626,8.661,8.661,0,0,0-1.319,2.012l-4.406,9.383Z" transform="translate(-262.856 -38.658)" fill="#cfe46b"/>
          <path id="Path_894" data-name="Path 894" d="M544.635,83.131a6.9,6.9,0,0,1-4.155-3.646,7.958,7.958,0,0,1,.156-6.129,14.458,14.458,0,0,1,2.266-4.081,12.424,12.424,0,0,1,3.2-2.887,9.631,9.631,0,0,1,3.767-1.367,8.24,8.24,0,0,1,4.006.461,6.9,6.9,0,0,1,4.155,3.647,7.952,7.952,0,0,1-.155,6.129,14.4,14.4,0,0,1-2.272,4.1,12.5,12.5,0,0,1-3.2,2.871,9.636,9.636,0,0,1-3.766,1.366A8.234,8.234,0,0,1,544.635,83.131Zm1.358-2.866a4.271,4.271,0,0,0,3.367-.167,7.289,7.289,0,0,0,3.039-2.97L554.02,74.5a4.731,4.731,0,0,0,.328-.579c.106-.22.205-.455.3-.707a4.046,4.046,0,0,0,.09-2.941,3.477,3.477,0,0,0-2.217-1.919,4.272,4.272,0,0,0-3.366.168,7.278,7.278,0,0,0-3.039,2.969l-1.62,2.633a5.719,5.719,0,0,0-.334.6,6.893,6.893,0,0,0-.291.69,4.046,4.046,0,0,0-.091,2.941A3.481,3.481,0,0,0,545.993,80.265Z" transform="translate(-283.229 -45.356)" fill="#cfe46b"/>
          <path id="Path_895" data-name="Path 895" d="M672.65,165.868a4.682,4.682,0,0,1-1.686-3.773,6.686,6.686,0,0,1,2.163-3.958,19.651,19.651,0,0,1,3.6-2.827,17.3,17.3,0,0,1,4.425-1.986,11.125,11.125,0,0,1,4.58-.358,7.015,7.015,0,0,1,4.06,2.06,5.437,5.437,0,0,1,1.8,3.272,3.446,3.446,0,0,1-1.029,2.884,3.586,3.586,0,0,1-2.1,1.095,2.457,2.457,0,0,1-2.137-.778,1.8,1.8,0,0,1-.654-1.458,2.114,2.114,0,0,1,.631-1.314,2.708,2.708,0,0,1,1.637-.732,2.653,2.653,0,0,1,2.111.8l.229-.232A4.2,4.2,0,0,0,689,156.444a3.946,3.946,0,0,0-1.277-.85,3.4,3.4,0,0,0-1.683-.179,9.185,9.185,0,0,0-2.318.648,21.239,21.239,0,0,0-3.157,1.655q-1.355.807-2.681,1.742a15.709,15.709,0,0,0-2.143,1.763q-2.164,2.2-.482,3.855a4.4,4.4,0,0,0,3.141,1.181,15.258,15.258,0,0,0,4.692-.808l.472,1.28a30.028,30.028,0,0,1-3.393.965,11.145,11.145,0,0,1-2.886.267,6.854,6.854,0,0,1-2.469-.57A7.4,7.4,0,0,1,672.65,165.868Z" transform="translate(-346.291 -87.678)" fill="#cfe46b"/>
          <path id="Path_896" data-name="Path 896" d="M691.721,182.489a2.416,2.416,0,0,1,.058-3.675,4.351,4.351,0,0,1,.754-.517c.3-.169.569-.324.8-.463l11.311-5.828-2.061-2.345,1.491-.778,6.006,4.582-15.6,8.046.213.683,5.6.105.173,1.3-3.821.216a8.084,8.084,0,0,1-3.214-.221A4.053,4.053,0,0,1,691.721,182.489Zm20.226-12.017a2.123,2.123,0,0,1-.631-1.571,1.8,1.8,0,0,1,.609-1.26,3.036,3.036,0,0,1,.672-.445,2.519,2.519,0,0,1,1.7-.263,2.743,2.743,0,0,1,1.547.937,2.126,2.126,0,0,1,.632,1.571,1.807,1.807,0,0,1-.609,1.26c-.091.08-.2.162-.312.249a1.388,1.388,0,0,1-.36.2,2.514,2.514,0,0,1-1.7.263A2.748,2.748,0,0,1,711.947,170.473Z" transform="translate(-355.893 -94.424)" fill="#cfe46b"/>
          <path id="Path_897" data-name="Path 897" d="M718.194,191.863l-1.882-2.492,1.545-.666,5.432,4.724-6.28,2.648.132.356q1.7-.464,3.091-.7a11.324,11.324,0,0,1,2.512-.168,5.1,5.1,0,0,1,1.991.5,4.239,4.239,0,0,1,1.507,1.273,3.17,3.17,0,0,1,.773,2.259,2.518,2.518,0,0,1-1.051,1.771,2.93,2.93,0,0,1-1.952.609,2.312,2.312,0,0,1-1.8-1,2.105,2.105,0,0,1-.481-1.48,1.723,1.723,0,0,1,.733-1.259,2.275,2.275,0,0,1,.938-.413,2.827,2.827,0,0,1,.941-.05l.072-.327a3.8,3.8,0,0,0-2.515-.649,21.924,21.924,0,0,0-4.253.482q-.748.155-1.792.4t-2.209.6q-1.164.356-2.389.781t-2.328.893l-3.72,1.581-2.362-3.13Z" transform="translate(-361.644 -104.928)" fill="#cfe46b"/>
          <path id="Path_898" data-name="Path 898" d="M724.762,231.106a4.686,4.686,0,0,1-.778-4.059,6.688,6.688,0,0,1,3.011-3.359,19.6,19.6,0,0,1,4.148-1.93,17.285,17.285,0,0,1,4.763-.922,11.123,11.123,0,0,1,4.539.7,7.006,7.006,0,0,1,3.481,2.933,5.433,5.433,0,0,1,1,3.6,3.447,3.447,0,0,1-1.661,2.572,3.583,3.583,0,0,1-2.292.586,2.453,2.453,0,0,1-1.9-1.246,1.8,1.8,0,0,1-.3-1.569,2.118,2.118,0,0,1,.915-1.135,2.709,2.709,0,0,1,1.761-.338,2.651,2.651,0,0,1,1.871,1.266l.276-.174a4.192,4.192,0,0,0-.756-2.356,3.927,3.927,0,0,0-1.05-1.119,3.405,3.405,0,0,0-1.6-.56,9.237,9.237,0,0,0-2.405.1,21.3,21.3,0,0,0-3.452.889q-1.5.476-3.009,1.082a15.657,15.657,0,0,0-2.488,1.226q-2.611,1.647-1.353,3.643a4.407,4.407,0,0,0,2.789,1.868,15.253,15.253,0,0,0,4.752.287l.167,1.354a30.063,30.063,0,0,1-3.524.163,11.132,11.132,0,0,1-2.871-.4,6.844,6.844,0,0,1-2.273-1.12A7.409,7.409,0,0,1,724.762,231.106Z" transform="translate(-371.729 -120.387)" fill="#cfe46b"/>
          <path id="Path_899" data-name="Path 899" d="M739.2,254.282a3.078,3.078,0,0,1-.284-2.639,3.616,3.616,0,0,1,1.811-1.777,7.229,7.229,0,0,1,1.047-.422,9.286,9.286,0,0,1,1.193-.292l11.155-2.206-1.412-2.825,1.64-.373,4.723,6.122-15.461,3.019a3.314,3.314,0,0,0-.762.259.867.867,0,0,0-.485,1.3,3.269,3.269,0,0,0,1.71,1.357,12.661,12.661,0,0,0,3.2.855,23.683,23.683,0,0,0,4.173.207,24.948,24.948,0,0,0,4.627-.587l5.137-1.147,1.753,3.507-16.708,3.683.032.715,5.39,1.527-.162,1.3-3.751-.763a8.343,8.343,0,0,1-3.068-1.024,3.843,3.843,0,0,1-1.315-1.413,2.279,2.279,0,0,1-.2-2.072,2.7,2.7,0,0,1,1.234-1.246,5.284,5.284,0,0,1,.963-.36q.538-.146.946-.229l2.463-.541-.064-.374q-1.533-.046-3-.165a13.214,13.214,0,0,1-2.713-.49,7.92,7.92,0,0,1-2.24-1.053A4.788,4.788,0,0,1,739.2,254.282Z" transform="translate(-378.918 -131.422)" fill="#cfe46b"/>
          <path id="Path_900" data-name="Path 900" d="M755.331,289.25a2.416,2.416,0,0,1,1.29-3.441,5.165,5.165,0,0,1,.877-.25c.338-.07.644-.118.917-.149l21.07-2.81-1.151-2.9,1.666-.231,4.115,6.336-25.851,3.457-.029.714,5.239,1.984-.273,1.28-3.671-1.083a8.1,8.1,0,0,1-2.953-1.289A4.056,4.056,0,0,1,755.331,289.25Z" transform="translate(-386.772 -148.616)" fill="#cfe46b"/>
          <path id="Path_901" data-name="Path 901" d="M763.2,313.475a3.185,3.185,0,0,1,.51-3.206,7.59,7.59,0,0,1,3.6-2.018,19.057,19.057,0,0,1,4.759-.755,18.731,18.731,0,0,1,4.989.446,11.874,11.874,0,0,1,4.214,1.836,6.278,6.278,0,0,1,2.471,3.406,4.1,4.1,0,0,1-.009,2.733,4.335,4.335,0,0,1-2.023,2.091l.1.347,3.316.931.567,1.877-17.1.768-.089.709,5.054,2.417-.38,1.253-3.567-1.387a11.4,11.4,0,0,1-2.745-1.427,3.178,3.178,0,0,1-1.121-1.577,2.321,2.321,0,0,1,.132-2.07,2.652,2.652,0,0,1,1.437-1.021,6.241,6.241,0,0,1,1-.207c.365-.047.685-.074.962-.081l2.243-.109v-.379q-1.544-.216-2.909-.524a11.437,11.437,0,0,1-2.451-.833,6.47,6.47,0,0,1-1.857-1.316A4.573,4.573,0,0,1,763.2,313.475Zm3.082.662a3.065,3.065,0,0,0,1.669,1.695,14.73,14.73,0,0,0,3.165,1.186,24.464,24.464,0,0,0,3.669.656,22.936,22.936,0,0,0,3.189.136l.748-.036a4.651,4.651,0,0,0,2.71-.819,1.811,1.811,0,0,0,.5-2.122,4.253,4.253,0,0,0-2.455-2.539,12.012,12.012,0,0,0-5.4-.853q-.643,0-1.438.074t-1.6.179q-.8.11-1.523.232a10.43,10.43,0,0,0-1.243.281,5.171,5.171,0,0,0-1.664.769A.988.988,0,0,0,766.279,314.138Z" transform="translate(-390.597 -162.1)" fill="#cfe46b"/>
          <path id="Path_902" data-name="Path 902" d="M789.44,347.159l-.6-3.063,1.68.077,2.819,6.624-6.806-.365-.037.377q1.729.327,3.084.726a11.313,11.313,0,0,1,2.332.948,5.1,5.1,0,0,1,1.573,1.319,4.232,4.232,0,0,1,.8,1.8,3.171,3.171,0,0,1-.292,2.37,2.519,2.519,0,0,1-1.72,1.133,2.937,2.937,0,0,1-2.021-.306,2.314,2.314,0,0,1-1.183-1.691,2.1,2.1,0,0,1,.215-1.541,1.718,1.718,0,0,1,1.209-.811,2.266,2.266,0,0,1,1.025.038,2.817,2.817,0,0,1,.868.366l.207-.263a3.793,3.793,0,0,0-1.977-1.684,21.951,21.951,0,0,0-4.036-1.426q-.74-.187-1.786-.426t-2.249-.428q-1.2-.189-2.491-.342t-2.484-.215l-4.036-.205-.757-3.847Z" transform="translate(-395.305 -179.726)" fill="#cfe46b"/>
        </g>
      </g>
      <path id="Path_903" data-name="Path 903" d="M318.127,54.589,316.337,49l3.842,4.451.648-5.834,1.692,5.622,2.974-5.067-.75,5.821,4.786-3.424-3.063,5.014,5.771-1.189-4.846,3.34,5.757,1.252-5.791,1.088,4.748,3.476L326.372,62.2l2.918,5.1L324.6,63.739l.584,5.84-2.828-5.149L320.507,70l-.481-5.85-3.967,4.34,1.949-5.539-5.4,2.358,4.042-4.27-5.893-.032,5.437-2.264-5.37-2.417,5.891.135L312.8,52.08Z" transform="translate(-172.913 -37.013)" fill="#cfe46b"/>
      <path id="Path_904" data-name="Path 904" d="M615.068,98.794l-.007.005,0,0,0,0,0,0,0,0,0,0,0,0h0l-.006.006,0,0,0,0,0,0,0,0,0,0,0,0,0,0-.006.006h0l-.006.005,0,0,0,0,0,0,0,0,0,0-.005,0h0l-.007.006h0l-.005,0,0,0,0,0,0,0,0,0,0,0-.006.006h0l-.006.005,0,0,0,0,0,0,0,0,0,0-.006.005h0l-.006.006h0l-.005.005,0,0-.005,0h0l-.006.005h0l-.013.011h0l-.005.005h0l-.005,0h0l-.013.012h0l-.006.005h0l-.005,0h0l-.019.018h0l-.006.005h0l-.026.024h0l-.007.006h0l-.026.024h0a11.222,11.222,0,0,0-.981,1.051l3.2,2.624a7.123,7.123,0,0,1,.82-.845l-2.724-3.114Zm-2.245,2.688a11.156,11.156,0,0,0-.816,1.671l3.856,1.5a7.04,7.04,0,0,1,.513-1.05l-3.553-2.121Zm-1.3,3.252a11.194,11.194,0,0,0-.195,1.117h0v.007h0l-.005.043h0v.006h0v.007h0l0,.035v.03h0v.107l0,.016v.05h0v.15l0,.016v.041h0v.1l0,.019v.032l0,.027h0v.014h0v.013l4.131.238a7.1,7.1,0,0,1,.164-1.164l-4.035-.915Zm-.233,3.495q.043.482.128.959h0l0,.008h0l0,.008h0l0,.025h0v.034l0,.007h0l0,.008v.044l0,.011v.032l.005.027h0l0,.007h0l0,.007h0q.064.328.15.654l4-1.047a7.058,7.058,0,0,1-.2-1.155l-4.121.37Zm.855,3.4h0l0,0v0l0,0v0l0,0v0l0,.011h0l0,0,0,0,0,0,0,0,0,0,0,0,0,0v0l0,.008,0,0v0l0,0,0,0,0,0,0,0,0,0,0,0,0,0v0l0,.007v0l0,0,0,0,0,0,0,0,0,0v0l0,0v0l0,.007h0l0,.006v0l0,.005v0l0,0v0l0,.006v0l0,.008h0l0,.007v0l0,.006v0l0,.006h0l0,.007h0l.007.015h0l0,.007v0l0,.006v0l0,.007h0l.011.023v0l0,.006h0l0,.007h0l.011.023h0l0,.007h0l.014.031h0l0,.007h0l0,.007h0l.014.031h0l.037.078h0l.023.047h0l.016.031h0l0,.007h0l.019.038h0l.016.031h0l0,.007h0l0,.007h0l.011.023h0l0,.007h0l0,.007h0l.012.023h0l0,.007h0l0,.007h0l.012.023h0l0,.007h0l0,.006h0l0,.007h0l.008.016h0l0,.007h0l0,.006v0l0,.006h0l.011.022h0l0,.006v0l0,.006v0l.008.015h0l0,.006v0l0,.006v0l0,.006v0l0,.006h0l0,.007h0l0,.007v0l0,.005v0l0,.005v0l0,.006v0l0,.007h0l0,.006,0,0,0,0,0,0,0,0v0l0,0,0,0,0,.007v0l0,.005,0,0,0,0,0,0,0,0v0l0,0,0,0,0,0,0,0,0,0,0,0,0,0,0,0,0,0,0,0,0,0,0,0v0l.009.016,0,0,0,0v0l0,0v0l0,.005h0l.01.018h0l0,.005v0l0,.005v0l0,.005h0l.01.017h0l0,.006h0l0,.005v0l.014.024h0l0,.006h0l0,.006h0l.018.031h0l0,.006h0l.022.037h0q.108.182.224.362l3.479-2.24a7.082,7.082,0,0,1-.548-1.032l-3.8,1.629Zm1.867,2.963,3.115-2.724-3.115,2.724Zm0,0,3.116-2.722-3.114,2.724h0l.006.006v0l0,0,0,0,0,0,0,0,0,0,0,0,.006.006v0l0,0,0,0,0,0,0,0,0,0,0,0,.005.006h0l0,.005,0,0,0,0v0l0,0,0,0,.005.005h0l.006.006v0l0,0,0,0,0,0,0,0,0,0,0,0,.005.006,0,0,0,0,0,0,0,0,0,0,0,0,0,0,0,0,0,0,.005.006,0,0,0,0,0,0,0,0,0,0,0,0v0l.005.006,0,0,0,0,0,0,0,0,0,0,0,0,0,0,0,0,0,0,0,0,0,0,0,0,0,0,0,0,0,0,0,0,0,0,.005.006,0,0,0,0,0,0,0,0,0,0,0,0,0,0,0,0,0,.005,0,0,0,0,0,0,0,0,0,0,0,0,0,0,0,.005,0,0,0,0,0,0,0,0,0,0,0,0,0,0,.011.012,0,0,0,0,0,0,0,0,0,0,0,0,0,0,.007.008h0l0,0v0l0,0,0,0,0,0h0l.014.014v0l0,0v0l0,0h0l.019.02h0l0,0h0l0,0h0l.015.015h0l0,0h0l0,.005h0l.02.021h0l0,0h0l.025.026h0q.333.337.688.639h0l.027.023h0l0,0h0l0,0h0l.016.013h0l0,0h0l0,0,0,0,.013.011,0,0,0,0,0,0,0,0,0,0,0,0,0,0,0,0,0,0,0,0,0,0,0,0,0,0,0,0,.005,0h0l.007.005h0l.005,0h0l.005,0h0l.006,0h0l.012.01,2.624-3.2a7.135,7.135,0,0,1-.844-.818h0l-3.116,2.722Zm4.809-1.306-2.121,3.552a11.131,11.131,0,0,0,1.671.816l1.5-3.856a6.992,6.992,0,0,1-1.05-.513Zm2.047.818-.916,4.035.138.03h0l.007,0h0l.007,0h0l.016,0h0l.007,0h.078l.027.006h0l.007,0h.008c.14.027.281.053.422.075h.015l.028,0h.037l.011,0h.045l.008,0h.034l.024,0h.025q.394.055.792.081h.1l.239-4.13a7.155,7.155,0,0,1-1.164-.165Zm2.21.148.369,4.121q.289-.026.576-.067h.015l.036-.005h.03l.019,0h.1l.007,0h.034l.016,0h.034l.024,0h0l.007,0h0l.007,0h.009l.024,0h0l.007,0h.018l.025,0h0l.007,0h0l.007,0h0l.007,0h0l.033-.006h.025l.017,0h.033l.008,0h0l.008,0h0l.008,0h0l.006,0h0l.006,0h.018l.008,0h0l.006,0h.035l.007,0h.044l.019,0h.023c.171-.036.341-.077.51-.121l-1.046-4a7.063,7.063,0,0,1-1.155.2Zm2.137-.537,1.628,3.8h0l0,0,0,0,.007,0h0l0,0h0l0,0h0l.005,0h0l.005,0h0l.02-.009h0l.006,0h0l.006,0h0a11.174,11.174,0,0,0,1.112-.563h0l.031-.018h0l.005,0,0,0,0,0h0l.015-.009,0,0,0,0,0,0,0,0,0,0,0,0,0,0,0,0,.007,0h0l.007,0h0l.006,0h0l.006,0h0l.007,0h0q.165-.1.326-.2l-2.239-3.48a6.991,6.991,0,0,1-1.032.548Zm1.872-1.18,2.72,3.118h0l-2.72-3.118Zm0,0,2.723,3.115h0l-2.723-3.115Zm.82-.845a7.2,7.2,0,0,1-.817.843l2.724,3.113h0l.006-.005,0,0,0,0,0,0,0,0,0,0,.005,0h0l.006-.006h0l.005,0,0,0,0,0,0,0,0,0v0l.006-.005h0l.005,0,0,0,0,0v0l0,0,0,0,.013-.011h0l0,0,0,0,0,0,0,0,0,0v0l.006-.005v0l.005,0,0,0,0,0,0,0,0,0h0l.012-.012h0l0,0,0,0,0,0h0l.013-.012h0l.005,0,0,0,0,0,0,0,.005,0h0l.006-.006h0l.006-.005,0,0,0,0,0,0,0,0,0,0,.012-.011h0l.005,0,0,0,0,0h0l.012-.012h0l.006-.006h0l.005-.005h0l.006-.005h0l.013-.012h0l.006-.005h0l.006-.006h0l.019-.018h0l.006-.005h0l.019-.018h0l.006-.006h0l.007-.006h0l.019-.019h0l.006-.006h0l.019-.019h0l.006-.006h0a11.325,11.325,0,0,0,.866-.94l-3.2-2.626Zm1.111-1.9a6.95,6.95,0,0,1-.513,1.049l3.552,2.122a11.1,11.1,0,0,0,.571-1.087h0l0-.007h0l.013-.031h0l0-.007h0l0-.007h0l.01-.023h0l0-.007v0l0-.006h0l0-.007h0l.01-.022v0l0-.006v0l0-.006h0l0-.007h0l.007-.015h0l0-.007v0l0-.006v0l0-.006v0l0-.006v0l.007-.015h0l0-.006v0l0-.005v0l0,0v0l0-.005v0l0-.007h0l0-.006v0l0-.005v0l0-.005v0l0-.005v0l0-.006h0l0-.008h0l0-.007v0l0-.006v0l0-.006v0l0-.006v0l0-.007h0l.006-.016v0l0-.006v0l0-.006v0l0-.007h0l.006-.016h0l0-.007v0l0-.006v0l0-.006v0l0-.007h0l.009-.023v0l0-.006h0l0-.007h0l.016-.039h0l0-.008h0l.03-.076-3.856-1.5Zm.47-2.161a7.157,7.157,0,0,1-.165,1.164l4.035.917c.029-.127.055-.253.079-.381h0c.011-.055.021-.11.031-.165h0a11.341,11.341,0,0,0,.147-1.233h0v-.007h0v-.008h0l0-.025h0v-.019l-4.13-.24Zm-.217-2.2a7.063,7.063,0,0,1,.2,1.155l4.121-.368c-.018-.206-.043-.41-.072-.615h0v-.008h0l0-.008h0l0-.024h0v-.025l0-.024h0v-.041h0v-.1l0-.017v-.038h0l0-.012v-.038h0l0-.02v-.025l0-.025v-.033l0-.017v-.04l0-.009V105l0-.007v-.034l-.005-.024h0l0-.007v-.01l0-.007h0l-.005-.024h0l0-.008h0l0-.008h0q-.052-.244-.115-.486l-4,1.045Zm-.884-2.015a7.02,7.02,0,0,1,.548,1.032l3.8-1.626c-.033-.077-.066-.152-.1-.229h0l-.011-.023v0l0-.005v0l0,0,0,0,0,0,0,0,0,0,0-.006,0,0,0,0v0l0,0v0l0-.005v0l-.015-.032h0a11.16,11.16,0,0,0-.57-1.063h0l0-.006h0l0-.005h0l-.008-.012h0l0,0,0,0,0,0,0,0,0,0,0,0,0,0,0-.005v0l0-.007h0l0-.006v0l0-.005v0l0-.006h0c-.031-.05-.063-.1-.1-.151l-3.48,2.237Zm-.634-.841,3.12-2.717h0l-3.12,2.717Zm0,0,3.116-2.722h0l-3.116,2.722Zm1.781-4.017-2.626,3.2a7.136,7.136,0,0,1,.841.816l3.114-2.724-.006-.006,0,0,0,0,0,0,0,0,0,0,0,0v0l-.006-.006,0,0,0,0,0,0,0,0,0,0,0,0,0,0-.005-.006,0,0,0,0,0,0,0,0,0,0,0,0,0,0-.011-.012v0l0,0,0,0,0,0,0,0,0,0,0,0-.005-.006,0,0,0,0,0,0,0,0,0,0,0,0,0,0-.006-.006h0l0-.005,0,0,0,0,0,0,0,0,0,0-.005-.006h0l-.005-.006,0,0,0,0,0,0,0,0,0,0,0,0,0,0-.006-.006,0,0,0,0,0,0,0,0,0,0,0,0,0,0,0,0,0,0,0,0,0,0,0,0,0,0,0,0,0,0,0,0,0,0,0,0,0,0,0,0,0,0,0,0,0,0,0,0,0,0-.005-.006,0,0,0,0,0,0,0,0,0,0,0,0,0,0v0l-.007-.008,0,0,0,0,0,0,0,0,0,0,0,0,0,0-.008-.008h0l0,0,0,0,0,0,0,0,0,0h0l-.013-.015h0l0,0,0,0,0,0h0l-.019-.02h0l0-.005h0l-.02-.02h0l0,0h0l-.025-.025h0a11.331,11.331,0,0,0-.891-.816Zm-3.023-1.77-1.5,3.855a7.069,7.069,0,0,1,1.049.513l2.123-3.551q-.177-.107-.358-.205h0l-.007,0h0l-.045-.024h0l-.03-.017h0l-.007,0h0l-.007,0h0l-.03-.016h0l-.006,0h0l-.006,0h0l-.022-.012h0l-.007,0h0l-.006,0h0l-.006,0h0l-.022-.011h0l-.006,0h0l-.006,0h0l-.006,0h0l-.015-.007h0l-.007,0h0l-.007,0h0l-.006,0h0l-.006,0h0l-.014-.008h0l-.007,0h0l-.006,0h0l-.005,0h0l-.006,0h0l-.014-.007h0l-.006,0h0l-.005,0h0l-.005,0h0l-.005,0h0l-.007,0h0l-.007,0h0l-.005,0h0l0,0,0,0,0,0h0l-.006,0h0l-.007,0h0l-.005,0h0l0,0h0l0,0,0,0,0,0,0,0-.005,0h0l-.007,0h0l-.005,0,0,0,0,0,0,0,0,0,0,0,0,0,0,0,0,0,0,0-.007,0,0,0,0,0,0,0,0,0,0,0,0,0,0,0,0,0,0,0,0,0-.007,0,0,0,0,0,0,0,0,0,0,0,0,0,0,0,0,0h0l0,0h0l-.01,0h0l-.005,0h0l0,0h0l0,0h0l0,0h0l-.018-.008h0l-.005,0h0l0,0h0l0,0h0l0,0h0l-.019-.009h0l-.006,0h0l-.006,0h0l-.005,0h0l-.032-.015h0l-.006,0h0l-.006,0h0l-.026-.012h0l-.006,0h0l-.006,0h0q-.251-.112-.507-.212Zm-3.422-.746-.241,4.13a7.105,7.105,0,0,1,1.164.165l.918-4.035a11.26,11.26,0,0,0-1.841-.261Zm-3.486.343,1.044,4a7.06,7.06,0,0,1,1.155-.2l-.367-4.121q-.353.032-.705.086h0l-.042.007h-.023l-.02,0h-.087l-.024,0h-.009l-.007,0h0q-.46.079-.914.2ZM616.4,97.792l2.236,3.481a6.971,6.971,0,0,1,1.032-.548l-1.625-3.8q-.33.141-.652.3h0l-.031.016h0l-.007,0h0l-.007,0h0l-.022.011h0l-.007,0h0l-.007,0h0l-.022.011h0l-.006,0h0l-.006,0h0l-.022.011h0l-.006,0h0l-.006,0h0l-.006,0h0l-.015.008h0l-.006,0h0l-.005,0h0l-.005,0h0l-.007,0h0l-.006,0,0,0,0,0,0,0,0,0,0,0,0,0,0,0,0,0,0,0-.005,0,0,0,0,0,0,0,0,0,0,0,0,0,0,0,0,0-.009,0h0l0,0,0,0,0,0h0l0,0h0l-.005,0h0l-.018.009h0l-.006,0h0l-.006,0h0l-.006,0h0L617,97.43h0l-.006,0h0q-.3.168-.6.357Zm-1.331,1,2.724,3.114.006-.005-2.721-3.117,0,0-.005,0Z" transform="translate(-317.561 -60.324)" fill="#cfe46b"/>
    </g>
    <circle id="Ellipse_5" data-name="Ellipse 5" cx="11.173" cy="11.173" r="11.173" transform="translate(37.468 218.748)" fill="#cfe46b"/>
    <g id="Group_472" data-name="Group 472" transform="translate(42.481 267.728)">
      <g id="Group_471" data-name="Group 471">
        <g id="Group_470" data-name="Group 470">
          <path id="Path_905" data-name="Path 905" d="M768.765,523.805a3.39,3.39,0,0,1,1.616-2.262,3.652,3.652,0,0,1,2.717-.142,5.014,5.014,0,0,1,.732.281c.278.129.574.261.887.4l9.865,4.616,1.394-4.964,2.9,1.343-.942,3.356a2.426,2.426,0,0,0-.02,1.616,2.366,2.366,0,0,0,1.229,1.062l4.328,2.044-.981,3.5-6.067-2.833-2.04,7.27-2.9-1.343,2.051-7.306-11.4-5.347-.545.6,2.935,8.214-2.757,1.225-1.484-3.848q-.575-1.444-.954-2.512a15.416,15.416,0,0,1-.565-1.949,8.131,8.131,0,0,1-.192-1.6A5.118,5.118,0,0,1,768.765,523.805Z" transform="translate(-394.403 -505.536)" fill="#cfe46b"/>
          <path id="Path_906" data-name="Path 906" d="M757.853,559.229l13.421,8.312,1.838-4.466,2.714,1.706-3.317,8.058-4.556-2.857-.083.2a10.688,10.688,0,0,1,2.553,3.956,6.368,6.368,0,0,1-.332,4.574l-.829,2.014-3.343-2.083,1.244-3.022a6.7,6.7,0,0,0,.588-2.525,4.477,4.477,0,0,0-.589-2.147,15.86,15.86,0,0,0-.929-1.462,5.953,5.953,0,0,0-1.79-1.66l-8.068-5.009Z" transform="translate(-388.53 -523.836)" fill="#cfe46b"/>
          <path id="Path_907" data-name="Path 907" d="M737.2,598.361a8.558,8.558,0,0,1,2.1-2.574,6.626,6.626,0,0,1,2.568-1.293,6.955,6.955,0,0,1,2.9-.068,9.978,9.978,0,0,1,3.119,1.152,14.35,14.35,0,0,1,3.851,3.012,10.749,10.749,0,0,1,2.157,3.629,9.345,9.345,0,0,1,.461,3.953,10,10,0,0,1-1.253,3.935A8.574,8.574,0,0,1,751,612.682a6.666,6.666,0,0,1-2.568,1.294,6.965,6.965,0,0,1-2.92.059,10.088,10.088,0,0,1-3.1-1.143,14.344,14.344,0,0,1-3.85-3.013,10.751,10.751,0,0,1-2.158-3.629,9.35,9.35,0,0,1-.461-3.953A9.985,9.985,0,0,1,737.2,598.361Zm2.574,1.722a4.917,4.917,0,0,0-.56,3.884,6.9,6.9,0,0,0,2.515,3.433l1.9,1.513q.408.31.763.57a6.282,6.282,0,0,0,.64.417,4,4,0,0,0,3.2.554,4.115,4.115,0,0,0,2.292-2.069,4.923,4.923,0,0,0,.56-3.885,6.9,6.9,0,0,0-2.515-3.433l-1.9-1.513c-.273-.208-.527-.4-.764-.57a6.256,6.256,0,0,0-.639-.418,4,4,0,0,0-3.2-.554A4.116,4.116,0,0,0,739.769,600.083Z" transform="translate(-378.674 -540.721)" fill="#cfe46b"/>
          <path id="Path_908" data-name="Path 908" d="M733.168,632.953l-2.268,3.153-3.171-3.177-.085.118a16.032,16.032,0,0,1,.927,2.1,8.106,8.106,0,0,1,.447,2.02,5.456,5.456,0,0,1-.2,1.983,6.493,6.493,0,0,1-1,1.985,5,5,0,0,1-4.045,2.389,8.911,8.911,0,0,1-5.178-2,19.328,19.328,0,0,1-3.317-3.036,13.144,13.144,0,0,1-2.269-3.623,9.151,9.151,0,0,1-.7-3.879,6.92,6.92,0,0,1,1.4-3.8,5.441,5.441,0,0,1,2.788-2.2,5.172,5.172,0,0,1,3.338.209l.105-.147-7.616-7.627,2.269-3.153Zm-16.2-4.9a4.8,4.8,0,0,0-1,3.909,7.379,7.379,0,0,0,2.043,3.595l1.838,1.859a5.873,5.873,0,0,0,.541.523q.317.272.641.506a4.661,4.661,0,0,0,2.78,1.016,2.96,2.96,0,0,0,2.354-1.437,4.95,4.95,0,0,0,.656-4.269,8.739,8.739,0,0,0-.706-1.94,7.52,7.52,0,0,0-1.441-1.977L722,627.154a2.716,2.716,0,0,0-2.52-.942A4.108,4.108,0,0,0,716.971,628.052Z" transform="translate(-367.317 -550.328)" fill="#cfe46b"/>
          <path id="Path_909" data-name="Path 909" d="M689.267,668.006a3.469,3.469,0,0,1,2.432-1.32,3.266,3.266,0,0,1,2.331.947,6.192,6.192,0,0,1,.648.69q.3.371.708.893l6.492,8.722,4.257-4.667,1.991,2.5-6.924,7.591-9.56-12.846-.7.341.032,8.53-2.967.291-.184-4q-.074-1.59-.038-2.787a15.318,15.318,0,0,1,.186-2.09,6.019,6.019,0,0,1,.468-1.563A5,5,0,0,1,689.267,668.006Zm15.266,16.774a2.733,2.733,0,0,1,1.688-1.065,1.7,1.7,0,0,1,1.3.448,4.122,4.122,0,0,1,.353.371c.129.149.257.315.386.5a2.653,2.653,0,0,1,.6,1.651,2.978,2.978,0,0,1-.94,1.871,2.742,2.742,0,0,1-1.688,1.064,1.7,1.7,0,0,1-1.3-.449,4.361,4.361,0,0,1-.354-.371q-.191-.225-.385-.5a2.657,2.657,0,0,1-.6-1.651A2.977,2.977,0,0,1,704.533,684.78Z" transform="translate(-355.509 -575.561)" fill="#cfe46b"/>
          <path id="Path_910" data-name="Path 910" d="M659.32,695.323a6.961,6.961,0,0,1,5.569-2.006,8.414,8.414,0,0,1,5.213,3.116,14.643,14.643,0,0,1,2.538,4.024,10.972,10.972,0,0,1,.883,4.14,9.493,9.493,0,0,1-.8,3.894,9.317,9.317,0,0,1-2.482,3.314,9.474,9.474,0,0,1-2.253,1.5,6.183,6.183,0,0,1-2.15.57,5.593,5.593,0,0,1-1.993-.216,6.4,6.4,0,0,1-1.78-.857l1.509-3.189a3.96,3.96,0,0,0,2.459.725,4.46,4.46,0,0,0,2.361-1.213,4.7,4.7,0,0,0,1.688-3.177,6.726,6.726,0,0,0-1.206-4.124l-1.155-1.882q-.279-.432-.513-.756c-.157-.217-.322-.426-.5-.627a3.607,3.607,0,0,0-5.709-.423,5.658,5.658,0,0,0-.807.87,3.66,3.66,0,0,0-.578,1.272,10.112,10.112,0,0,0-.279,1.975,20.8,20.8,0,0,0,.089,2.978l-2.994.487a21.632,21.632,0,0,1-.283-3.147,11.54,11.54,0,0,1,.28-2.721,7.7,7.7,0,0,1,1-2.387A9.8,9.8,0,0,1,659.32,695.323Z" transform="translate(-340.287 -588.355)" fill="#cfe46b"/>
          <path id="Path_911" data-name="Path 911" d="M625.487,718.461a4.736,4.736,0,0,1,4.482-.781,9.169,9.169,0,0,1,4.144,3.674,19.93,19.93,0,0,1,2.1,3.971,13.384,13.384,0,0,1,.948,4.147,8.937,8.937,0,0,1-.6,3.845,6.7,6.7,0,0,1-2.545,3.063,4.778,4.778,0,0,1-6.348-.273l-.15.1,1.459,3.094-3.205,2.195-6.694-14.337-1.887,1.293-1.315-2.884,1.947-1.333a3.408,3.408,0,0,1,2.764-.75,2.9,2.9,0,0,1,1.871,1.8l.414.86.119-.082a11.616,11.616,0,0,1,.077-4.321A5.444,5.444,0,0,1,625.487,718.461Zm.5,3.488a4.818,4.818,0,0,0-2.007,3.75,9.913,9.913,0,0,0,.036,2.044,7.478,7.478,0,0,0,.684,2.348l1.6,3.434a2.768,2.768,0,0,0,2.021,1.762,3.919,3.919,0,0,0,2.925-.836A4.483,4.483,0,0,0,633.4,731.2a7.712,7.712,0,0,0-.76-4.034l-1.1-2.373a5.584,5.584,0,0,0-.33-.675q-.206-.365-.431-.695a4.9,4.9,0,0,0-2.225-1.931A2.691,2.691,0,0,0,625.984,721.949Z" transform="translate(-320.902 -599.978)" fill="#cfe46b"/>
          <path id="Path_912" data-name="Path 912" d="M591.429,742.531a3.384,3.384,0,0,1,2.751-.423,3.5,3.5,0,0,1,1.857,1.772,10.764,10.764,0,0,1,.686,1.772l5.6,18.428,5.461-2.875.991,3.048-8.963,4.72-7.05-23.286-.793.13L588.975,754l-2.858-.752,1.342-4.153q.5-1.537.951-2.634a12.994,12.994,0,0,1,.911-1.854,6.31,6.31,0,0,1,.981-1.255A4.975,4.975,0,0,1,591.429,742.531Z" transform="translate(-306.576 -611.798)" fill="#cfe46b"/>
          <path id="Path_913" data-name="Path 913" d="M452.6,784.531a2.9,2.9,0,0,1,2.149.563,2.443,2.443,0,0,1,.85,1.779,4.82,4.82,0,0,1-.047.913l-3.076,23.681-3.767.257,3.129-23.976-2.607.178.4-3.193Z" transform="translate(-240.434 -632.281)" fill="#cfe46b"/>
          <path id="Path_914" data-name="Path 914" d="M412.043,784.967a2.944,2.944,0,0,1,2.006.683,2.286,2.286,0,0,1,.719,1.825,4.427,4.427,0,0,1-.124,1.052l-.156.688.145,0a10.692,10.692,0,0,1,2.609-3.449,5.412,5.412,0,0,1,3.592-1.11,4.736,4.736,0,0,1,4,1.945,8.211,8.211,0,0,1,1.344,5.066,18.577,18.577,0,0,1-.686,4.783,13.738,13.738,0,0,1-1.856,4.077,9.684,9.684,0,0,1-2.89,2.809,6.849,6.849,0,0,1-3.791,1.017,5.346,5.346,0,0,1-3.18-1.007,3.947,3.947,0,0,1-1.6-2.655l-.182,0-.662,3.149-3.776-.053,3.383-15.673-2.432-.035.662-3.149Zm7.294,2.9a4.056,4.056,0,0,0-2.058.479,6.627,6.627,0,0,0-1.635,1.284,8.447,8.447,0,0,0-2.13,4.181l-.816,3.8a2.681,2.681,0,0,0,.692,2.352,3.561,3.561,0,0,0,1.2.816,4.381,4.381,0,0,0,1.684.332,4.531,4.531,0,0,0,3.4-1.241,7.372,7.372,0,0,0,1.833-3.768l.582-2.643q.08-.434.142-.978t.068-.98a4.235,4.235,0,0,0-.707-2.606A2.645,2.645,0,0,0,419.337,787.867Z" transform="translate(-220.628 -632.347)" fill="#cfe46b"/>
          <path id="Path_915" data-name="Path 915" d="M386.969,783.325a3.657,3.657,0,0,1,2.469,1.019,2.738,2.738,0,0,1,.6,2.178q-.029.289-.1.646t-.183.711l-3.441,11.181,2.745.281-.935,3.078-1.409-.143a1.862,1.862,0,0,0-1.471.287,3,3,0,0,0-.7,1.352l-.986,3.22-3.5-.357,1.535-5.026-3.757-.384.935-3.079,3.793.388,3.768-12.242-3.648-.373.935-3.079Z" transform="translate(-206.314 -631.541)" fill="#cfe46b"/>
          <path id="Path_916" data-name="Path 916" d="M359.822,802.137a2.208,2.208,0,0,1,1.436.672,1.424,1.424,0,0,1,.293,1.151,7.555,7.555,0,0,1-.382,1.226,2.7,2.7,0,0,1-.975,1.258,2.587,2.587,0,0,1-1.918.261,2.207,2.207,0,0,1-1.435-.673,1.419,1.419,0,0,1-.293-1.15,7.63,7.63,0,0,1,.382-1.226,2.7,2.7,0,0,1,.975-1.259A2.589,2.589,0,0,1,359.822,802.137Zm6.518-21.492a2.9,2.9,0,0,1,1.967,1.034,2.447,2.447,0,0,1,.425,1.926,4.844,4.844,0,0,1-.252.879l-5.5,14.741-3.728-.6,5.621-15.016-2.4-.387,1.112-3.02Z" transform="translate(-196.062 -630.202)" fill="#cfe46b"/>
          <path id="Path_917" data-name="Path 917" d="M344.667,775.672,336.483,793.1l-3.665-.9,1.739-3.721-.176-.044a9.5,9.5,0,0,1-3.193,2.635,5.428,5.428,0,0,1-3.693.267,4.465,4.465,0,0,1-3.115-2.151,5.474,5.474,0,0,1-.25-3.913,10.066,10.066,0,0,1,.361-1.164q.214-.564.529-1.234l3.7-7.876-2.22-.547,1.355-2.919,2.785.687a2.8,2.8,0,0,1,1.7,1.055,2.235,2.235,0,0,1,.262,1.9l-.092.371a2.492,2.492,0,0,1-.188.458l-3.542,7.541a10.3,10.3,0,0,0-.689,1.886,2.89,2.89,0,0,0,.1,2.025,2.373,2.373,0,0,0,1.672,1.1,4.3,4.3,0,0,0,3.59-.761,8.936,8.936,0,0,0,1.823-1.626,8.647,8.647,0,0,0,1.318-2.011L341,774.768Z" transform="translate(-180.354 -626.027)" fill="#cfe46b"/>
          <path id="Path_918" data-name="Path 918" d="M299.631,763.643a6.9,6.9,0,0,1,4.155,3.647,7.953,7.953,0,0,1-.156,6.129,14.453,14.453,0,0,1-2.266,4.081,12.426,12.426,0,0,1-3.2,2.887,9.619,9.619,0,0,1-3.766,1.367,8.23,8.23,0,0,1-4.007-.461,6.909,6.909,0,0,1-4.155-3.647,7.959,7.959,0,0,1,.156-6.128,14.412,14.412,0,0,1,2.273-4.1,12.512,12.512,0,0,1,3.2-2.87,9.629,9.629,0,0,1,3.767-1.367A8.241,8.241,0,0,1,299.631,763.643Zm-1.358,2.867a4.268,4.268,0,0,0-3.367.167,7.283,7.283,0,0,0-3.039,2.969l-1.621,2.634a4.718,4.718,0,0,0-.328.58,7.574,7.574,0,0,0-.3.707,4.047,4.047,0,0,0-.091,2.941,3.478,3.478,0,0,0,2.217,1.919,4.27,4.27,0,0,0,3.367-.167,7.285,7.285,0,0,0,3.039-2.969l1.62-2.633a5.764,5.764,0,0,0,.335-.6,7.065,7.065,0,0,0,.291-.69,4.044,4.044,0,0,0,.091-2.941A3.48,3.48,0,0,0,298.273,766.509Z" transform="translate(-161.966 -621.974)" fill="#cfe46b"/>
          <path id="Path_919" data-name="Path 919" d="M169.738,684.263a4.686,4.686,0,0,1,1.687,3.774,6.691,6.691,0,0,1-2.164,3.958,19.625,19.625,0,0,1-3.6,2.828,17.338,17.338,0,0,1-4.426,1.987,11.138,11.138,0,0,1-4.58.357,7.016,7.016,0,0,1-4.06-2.059,5.437,5.437,0,0,1-1.8-3.272,3.448,3.448,0,0,1,1.03-2.884,3.586,3.586,0,0,1,2.1-1.095,2.457,2.457,0,0,1,2.137.779,1.8,1.8,0,0,1,.653,1.457,2.121,2.121,0,0,1-.631,1.315,2.717,2.717,0,0,1-1.637.732,2.653,2.653,0,0,1-2.112-.8l-.229.233a4.194,4.194,0,0,0,1.275,2.121,3.945,3.945,0,0,0,1.278.85,3.4,3.4,0,0,0,1.683.178,9.187,9.187,0,0,0,2.318-.648,21.216,21.216,0,0,0,3.157-1.655q1.355-.807,2.682-1.742a15.688,15.688,0,0,0,2.142-1.763q2.164-2.2.483-3.854a4.4,4.4,0,0,0-3.142-1.182,15.293,15.293,0,0,0-4.692.808l-.472-1.28a30.164,30.164,0,0,1,3.393-.964,11.131,11.131,0,0,1,2.886-.267,6.841,6.841,0,0,1,2.469.571A7.4,7.4,0,0,1,169.738,684.263Z" transform="translate(-97.025 -583.009)" fill="#cfe46b"/>
          <path id="Path_920" data-name="Path 920" d="M125.865,677.918a2.121,2.121,0,0,1,.632,1.571,1.8,1.8,0,0,1-.609,1.26,3.021,3.021,0,0,1-.672.444,2.514,2.514,0,0,1-1.7.264,2.748,2.748,0,0,1-1.547-.936,2.126,2.126,0,0,1-.632-1.572,1.8,1.8,0,0,1,.609-1.259c.091-.08.2-.163.312-.25a1.382,1.382,0,0,1,.36-.2,2.512,2.512,0,0,1,1.7-.263A2.746,2.746,0,0,1,125.865,677.918ZM146.091,665.9a2.415,2.415,0,0,1-.058,3.675,4.429,4.429,0,0,1-.754.517c-.3.169-.569.324-.8.463l-11.311,5.828,2.062,2.346-1.492.778-6.006-4.582,15.6-8.046-.213-.683-5.6-.105-.173-1.3,3.821-.216a8.1,8.1,0,0,1,3.215.221A4.05,4.05,0,0,1,146.091,665.9Z" transform="translate(-82.848 -574.522)" fill="#cfe46b"/>
          <path id="Path_921" data-name="Path 921" d="M120.918,659.962l1.882,2.492-1.545.665-5.432-4.725,6.279-2.648-.132-.356q-1.7.464-3.091.7a11.325,11.325,0,0,1-2.511.168,5.118,5.118,0,0,1-1.991-.5,4.246,4.246,0,0,1-1.507-1.273,3.169,3.169,0,0,1-.774-2.259,2.518,2.518,0,0,1,1.051-1.771,2.931,2.931,0,0,1,1.951-.609,2.314,2.314,0,0,1,1.8,1,2.1,2.1,0,0,1,.481,1.479,1.726,1.726,0,0,1-.733,1.259,2.292,2.292,0,0,1-.939.413,2.827,2.827,0,0,1-.94.05l-.072.327a3.8,3.8,0,0,0,2.515.649,21.959,21.959,0,0,0,4.253-.481q.748-.156,1.792-.4t2.209-.6q1.164-.356,2.389-.781t2.328-.894l3.72-1.58,2.362,3.13Z" transform="translate(-78.397 -567.453)" fill="#cfe46b"/>
          <path id="Path_922" data-name="Path 922" d="M117.153,620.249a4.687,4.687,0,0,1,.778,4.059,6.685,6.685,0,0,1-3.011,3.358,19.542,19.542,0,0,1-4.148,1.93,17.29,17.29,0,0,1-4.763.922,11.143,11.143,0,0,1-4.54-.7,7.011,7.011,0,0,1-3.481-2.934,5.433,5.433,0,0,1-1-3.6,3.445,3.445,0,0,1,1.661-2.572,3.579,3.579,0,0,1,2.292-.587,2.455,2.455,0,0,1,1.9,1.246,1.807,1.807,0,0,1,.3,1.569,2.12,2.12,0,0,1-.915,1.135,2.714,2.714,0,0,1-1.762.338,2.654,2.654,0,0,1-1.871-1.266l-.276.174a4.192,4.192,0,0,0,.756,2.356,3.938,3.938,0,0,0,1.049,1.119,3.4,3.4,0,0,0,1.6.559,9.212,9.212,0,0,0,2.405-.1,21.158,21.158,0,0,0,3.452-.889q1.5-.475,3.009-1.082a15.715,15.715,0,0,0,2.488-1.226q2.61-1.647,1.352-3.643a4.406,4.406,0,0,0-2.789-1.868,15.24,15.24,0,0,0-4.752-.286l-.167-1.354a30.056,30.056,0,0,1,3.525-.162,11.106,11.106,0,0,1,2.871.4,6.864,6.864,0,0,1,2.273,1.12A7.415,7.415,0,0,1,117.153,620.249Z" transform="translate(-71.115 -551.523)" fill="#cfe46b"/>
          <path id="Path_923" data-name="Path 923" d="M99.868,589.343a3.08,3.08,0,0,1,.284,2.639,3.623,3.623,0,0,1-1.812,1.778,7.278,7.278,0,0,1-1.047.422,9.316,9.316,0,0,1-1.193.292L84.946,596.68l1.412,2.826-1.64.373-4.724-6.122,15.461-3.019a3.35,3.35,0,0,0,.762-.259.867.867,0,0,0,.485-1.3,3.265,3.265,0,0,0-1.71-1.357,12.661,12.661,0,0,0-3.2-.855,23.679,23.679,0,0,0-4.174-.207,24.935,24.935,0,0,0-4.627.588L77.852,588.5,76.1,584.989l16.708-3.683-.032-.715-5.39-1.527.162-1.3,3.751.764a8.34,8.34,0,0,1,3.068,1.024,3.828,3.828,0,0,1,1.315,1.412,2.279,2.279,0,0,1,.2,2.072,2.7,2.7,0,0,1-1.234,1.246,5.3,5.3,0,0,1-.963.36q-.538.146-.946.229l-2.463.541.064.374q1.532.045,3,.164a13.2,13.2,0,0,1,2.713.491,7.9,7.9,0,0,1,2.24,1.052A4.793,4.793,0,0,1,99.868,589.343Z" transform="translate(-61.076 -532.759)" fill="#cfe46b"/>
          <path id="Path_924" data-name="Path 924" d="M79.252,562.117a2.417,2.417,0,0,1-1.29,3.441,5.16,5.16,0,0,1-.878.25c-.337.07-.643.118-.916.149L55.1,568.768l1.151,2.9-1.666.231-4.114-6.336,25.851-3.457.029-.714-5.238-1.984.273-1.281,3.67,1.083a8.088,8.088,0,0,1,2.953,1.289A4.048,4.048,0,0,1,79.252,562.117Z" transform="translate(-48.739 -523.307)" fill="#cfe46b"/>
          <path id="Path_925" data-name="Path 925" d="M77.3,533.21a3.185,3.185,0,0,1-.51,3.207,7.593,7.593,0,0,1-3.6,2.018,19.082,19.082,0,0,1-4.76.756,18.767,18.767,0,0,1-4.989-.446,11.87,11.87,0,0,1-4.215-1.836,6.279,6.279,0,0,1-2.471-3.406,4.105,4.105,0,0,1,.009-2.734,4.334,4.334,0,0,1,2.022-2.09l-.1-.348-3.315-.932-.567-1.877,17.1-.769.089-.709-5.055-2.417.38-1.253,3.567,1.388a11.384,11.384,0,0,1,2.745,1.427,3.18,3.18,0,0,1,1.121,1.577,2.318,2.318,0,0,1-.133,2.069,2.649,2.649,0,0,1-1.437,1.022,6.213,6.213,0,0,1-1,.207c-.365.047-.685.074-.962.082l-2.243.108v.379q1.543.217,2.908.525a11.44,11.44,0,0,1,2.452.833,6.48,6.48,0,0,1,1.857,1.316A4.583,4.583,0,0,1,77.3,533.21Zm-3.083-.661a3.065,3.065,0,0,0-1.668-1.7,14.781,14.781,0,0,0-3.165-1.186,24.609,24.609,0,0,0-3.668-.655,23.016,23.016,0,0,0-3.19-.136l-.748.036a4.657,4.657,0,0,0-2.71.819,1.811,1.811,0,0,0-.5,2.122,4.251,4.251,0,0,0,2.455,2.539,12.02,12.02,0,0,0,5.4.853q.643,0,1.438-.074t1.6-.179q.8-.11,1.522-.232a10.447,10.447,0,0,0,1.243-.281,5.173,5.173,0,0,0,1.664-.768A.986.986,0,0,0,74.213,532.549Z" transform="translate(-50.822 -505.133)" fill="#cfe46b"/>
          <path id="Path_926" data-name="Path 926" d="M52.071,503l.6,3.063-1.68-.076-2.819-6.624,6.806.364.037-.377q-1.729-.327-3.084-.726a11.291,11.291,0,0,1-2.332-.948,5.119,5.119,0,0,1-1.573-1.319,4.238,4.238,0,0,1-.8-1.8,3.171,3.171,0,0,1,.293-2.37,2.518,2.518,0,0,1,1.72-1.133,2.935,2.935,0,0,1,2.022.305,2.318,2.318,0,0,1,1.183,1.691,2.1,2.1,0,0,1-.215,1.541,1.723,1.723,0,0,1-1.209.812,2.276,2.276,0,0,1-1.026-.04,2.83,2.83,0,0,1-.868-.366l-.207.263a3.79,3.79,0,0,0,1.978,1.683,21.9,21.9,0,0,0,4.036,1.427q.74.188,1.786.426t2.248.427q1.2.19,2.491.343t2.484.215l4.036.205.757,3.847Z" transform="translate(-47.134 -490.988)" fill="#cfe46b"/>
        </g>
      </g>
      <path id="Path_927" data-name="Path 927" d="M522.655,788.782l1.79,5.592-3.841-4.451-.648,5.834-1.692-5.622-2.974,5.067.75-5.822-4.786,3.424,3.063-5.014-5.771,1.189,4.845-3.34-5.757-1.252,5.79-1.088-4.748-3.476,5.734,1.352-2.918-5.1,4.687,3.558-.584-5.84,2.828,5.149,1.852-5.572.481,5.85,3.967-4.34-1.949,5.539,5.4-2.358-4.042,4.27,5.893.032-5.437,2.264,5.37,2.417-5.891-.135,3.919,4.383Z" transform="translate(-268.798 -626.914)" fill="#cfe46b"/>
      <path id="Path_928" data-name="Path 928" d="M225.747,744.611l.006-.006,0,0,0,0,0,0,0,0,0,0,0,0,0,0,.006-.005h0l0,0,0,0,0,0,0,0,0,0,0,0,.006-.006h0l.006-.005,0,0,0,0,0,0,0,0,0,0,.006,0h0l.006-.006h0l.005,0,0,0,0,0,0,0,0,0,0,0,.006-.005h0l.006-.005,0,0,0,0h0l0,0h0l.006-.006h0l.007-.006h0l.006,0,0,0,0,0h0l.006-.005h0l.013-.012h0l.005,0h0l.005,0h0l.012-.012h0l.005-.005h0l.005-.005h0l.019-.018h0l.006-.005h0l.025-.024h0l.006-.006h0l.026-.024h0a11.3,11.3,0,0,0,.981-1.05l-3.2-2.624a7.162,7.162,0,0,1-.819.845l2.724,3.114Zm2.245-2.688a11.148,11.148,0,0,0,.816-1.671l-3.856-1.5a6.989,6.989,0,0,1-.513,1.05l3.553,2.121Zm1.3-3.253q.125-.554.194-1.117h0v-.007h0l.005-.043h0v-.007h0v-.006h0l0-.035v-.03h0l0-.011v-.1l0-.016v-.05h0v-.092l0-.016h0V737.1h0v-.058h0v-.1h0v-.049h0l0-.027h0v-.014h0v-.014l-4.13-.238a7.221,7.221,0,0,1-.164,1.164l4.035.915Zm.233-3.495q-.044-.482-.128-.959h0l0-.008h0V734.2h0l0-.024h0l0-.008h0l0-.007v0l0-.006v0l0-.006v0l0-.007h0l0-.008v-.044l0-.011v-.032l-.006-.027h0l0-.007h0V734h0q-.065-.328-.15-.654l-4,1.047a7.066,7.066,0,0,1,.2,1.155l4.121-.37Zm-.856-3.4h0l0,0v0l0,0v0l0,0v0l0-.01h0l0,0v0l0,0,0,0,0,0,0,0,0,0v0l0-.008v0l0,0,0,0,0,0,0,0,0,0,0,0,0,0,0,0v0l0-.007v0l0,0,0,0,0,0,0,0,0,0v0l0,0,0,0,0-.007h0l0-.006v0l0-.005,0,0,0-.005v0l0-.006h0l0-.008h0l0-.007v0l0-.006v0l0-.006h0l0-.007h0l-.007-.015h0l0-.007v0l0-.006v0l0-.007h0l-.01-.023h0l0-.006h0l0-.007h0l-.01-.023h0l0-.007h0l-.015-.031h0l0-.008h0l0-.007h0l-.015-.031h0l-.037-.078h0l-.023-.047h0l-.015-.031h0l0-.008h0l-.019-.038h0l-.016-.031h0l0-.007h0l0-.007h0l-.011-.023h0l0-.007h0l0-.007h0l-.011-.023h0l0-.007h0l0-.007h0l-.012-.023h0l0-.007h0l0-.007h0l0-.007h0l-.008-.015h0l0-.007h0l0-.006v0l0-.006h0l-.012-.022h0l0-.006v0l0-.006h0l-.008-.015v0l0-.006v0l0-.005v0l0-.006v0l0-.006h0l0-.008h0l0-.007v0l0-.005v0l0-.005,0,0,0-.006v0l0-.007v0l0-.006v0l0,0v0l0,0,0,0,0,0,0,0,0-.007v0l0-.006,0,0,0,0,0,0,0,0,0,0,0,0,0,0,0,0,0,0,0,0,0,0,0,0,0,0,0,0,0,0,0,0,0,0v0l-.009-.017v0l0,0,0,0,0,0v0l0-.005h0l-.01-.018h0l0-.005v0l0-.005v0l0-.005h0l-.01-.018h0l0-.006h0l0-.005v0l-.014-.024h0l0-.005h0l0-.006h0l-.018-.031h0l0-.006h0l-.022-.037h0c-.072-.122-.146-.242-.224-.362l-3.479,2.24a6.941,6.941,0,0,1,.548,1.032l3.8-1.629Zm-1.867-2.963-3.114,2.723,3.114-2.723Zm0,0-3.116,2.722,3.114-2.725h0l-.006-.006,0,0,0,0,0,0,0,0,0,0,0,0,0,0-.005-.006h0l0-.005,0,0,0,0,0,0,0,0,0,0-.006-.006h0l0-.005,0,0,0,0,0,0,0,0,0,0,0-.005h0l-.006-.006,0,0,0,0,0,0,0,0,0,0,0,0,0,0-.005-.006,0,0,0,0,0,0,0,0,0,0,0,0,0,0,0-.005h0l-.005-.006,0,0,0,0,0,0,0,0,0,0,0,0,0,0-.006-.006,0,0,0,0,0,0,0,0,0,0,0,0,0,0,0,0,0,0,0,0,0,0,0,0,0,0,0,0,0,0,0,0,0,0-.005-.006,0,0,0,0,0,0,0,0,0,0,0,0,0,0,0,0,0-.005,0,0,0,0,0,0,0,0,0,0,0,0,0,0,0,0,0,0,0,0,0,0,0,0,0,0,0,0,0,0-.012-.013,0,0,0,0,0,0,0,0,0,0,0,0,0,0-.008-.008h0l0,0,0,0,0,0,0,0,0,0h0l-.014-.014v0l0,0v0l0,0h0l-.019-.02h0l0,0h0l0,0h0l-.015-.016h0l0,0h0l0,0h0l-.02-.021h0l-.005-.005h0l-.025-.025h0q-.334-.337-.688-.64h0l-.027-.023h0l-.005,0h0l-.005,0h0l-.016-.014h0l0,0h0l0,0h0l-.013-.011,0,0,0,0,0,0,0,0,0,0,0,0,0,0,0,0,0,0,0,0,0,0,0,0,0,0,0,0-.005,0h0l-.006-.006h0l-.006,0h0l-.005,0h0l-.006,0h0l-.012-.01-2.625,3.2a7.154,7.154,0,0,1,.844.819h0l3.116-2.722Zm-4.809,1.307,2.121-3.552a11.164,11.164,0,0,0-1.671-.817l-1.5,3.856a6.982,6.982,0,0,1,1.05.513Zm-2.047-.818.916-4.035-.138-.031h0l-.007,0h-.01l-.016,0h0l-.007,0h-.079l-.027-.005h0l-.007,0h0l-.007,0h0c-.14-.027-.281-.053-.422-.075h-.015l-.028,0h-.037l-.011,0h-.087l-.025,0h-.025q-.4-.054-.792-.081h-.1l-.239,4.131a7.154,7.154,0,0,1,1.165.164Zm-2.21-.148-.369-4.121q-.289.026-.577.066h-.015l-.035.005h-.03l-.019,0h-.13l-.007,0h0l-.016,0h-.026l-.007,0h0l-.024,0h0l-.007,0h-.017l-.025,0h-.025l-.024,0h-.025l-.032.006h-.018l-.007,0h0l-.016,0h0l-.008,0h-.025l-.008,0h0l-.008,0h0l-.007,0h0l-.007,0h-.01l-.006,0h0l-.007,0h0l-.008,0h-.042l-.008,0h-.044l-.019,0h-.009l-.006,0h-.008q-.256.054-.51.121l1.046,4a7.054,7.054,0,0,1,1.155-.2Zm-2.138.537-1.628-3.8h0l0,0,0,0-.007,0h0l0,0h0l0,0h0l0,0h0l-.005,0h0l-.019.008h0l-.006,0h0l-.006,0h0a11.061,11.061,0,0,0-1.112.563h0l-.031.018h0l-.005,0h0l-.005,0h0l-.015.009,0,0,0,0,0,0,0,0,0,0,0,0,0,0,0,0-.007,0h0l-.007,0h0l-.006,0h0l-.006,0h0l-.007,0h0c-.109.065-.218.132-.326.2l2.238,3.48a7.02,7.02,0,0,1,1.032-.548Zm-1.871,1.18-2.72-3.118h0l2.72,3.118Zm0,0-2.722-3.116h0l2.722,3.116Zm-.82.845a7.153,7.153,0,0,1,.817-.842L211,727.76h0l-.006.006,0,0,0,0,0,0,0,0,0,0-.005,0h0l-.006.006h0l0,0,0,0,0,0,0,0,0,0h0l-.006.006h0l-.005,0,0,0,0,0,0,0,0,0,0,0-.013.011h0l-.005,0,0,0,0,0,0,0,0,0h0l-.006.006h0l-.005,0,0,0,0,0,0,0,0,0h0l-.013.011h0l-.005,0h0l-.005,0h0l-.013.011h0l-.005,0,0,0,0,0h0l-.005,0h0l-.006.006h0l-.006.005,0,0,0,0,0,0,0,0,0,0-.012.011h0l0,0,0,0-.005,0h0l-.013.012h0l-.006.006h0l-.005,0h0l-.006.006h0l-.013.012h0l-.006.006h0l-.006.005h0l-.019.018h0l-.006.006h0l-.019.018h0l-.006.006h0l-.006.006h0l-.02.019h0l-.006.006h0l-.019.019h0l-.006.006h0a11.246,11.246,0,0,0-.867.94l3.2,2.625Zm-1.111,1.9a7.045,7.045,0,0,1,.513-1.049l-3.552-2.122a11.1,11.1,0,0,0-.57,1.087h0l0,.007h0l-.014.031h0l0,.006h0l0,.007h0l-.01.023h0l0,.007v0l0,.006h0l0,.007h0l-.01.022v0l0,.006v0l0,.006v0l0,.007h0l-.007.016h0l0,.007v0l0,.006v0l0,.006h0l0,.006v0l-.007.015h0l0,.006v0l0,0v0l0,0v0l0,.005v0l0,.007h0l0,.006v0l0,.005v0l0,.005v0l0,0v0l0,.006v0l0,.007h0l0,.007v0l0,.006v0l0,.005v0l0,.006v0l0,.007h0l-.006.015v0l0,.006v0l0,.006v0l0,.006h0l-.006.016h0l0,.007v0l0,.006v0l0,.006v0l0,.007h0l-.009.023h0l0,.007h0l0,.007h0l-.016.039h0l0,.008h0l-.03.076,3.855,1.5Zm-.47,2.161a7.16,7.16,0,0,1,.165-1.164l-4.035-.917c-.029.127-.055.253-.079.381h0c-.01.055-.021.11-.03.165h0a11.318,11.318,0,0,0-.147,1.233h0v.008h0v.008h0l0,.025h0v.019l4.13.24Zm.217,2.2a7.065,7.065,0,0,1-.2-1.155l-4.121.368q.028.308.072.615h0v.008h0v.008h0l0,.024h0v.025l0,.024h0v.041h0l0,.008v.088l0,.017v.038h0l0,.012v.038h0l0,.02v.025l0,.025v.033l0,.017v.04l0,.009v.088l0,.006v0l0,.008v.026l0,.006v0l0,.024h0v.008l0,.006h0l0,.008h0l.005.025h0l0,.008h0l0,.008h0c.035.163.073.324.115.486l4-1.045Zm.884,2.014a7.063,7.063,0,0,1-.548-1.032l-3.8,1.626q.049.114.1.228h0l.01.023v0l0,.006v0l0,0v0l0,0,0,0,0,0,0,.006,0,0,0,0v0l0,0v0l0,.005v0l.015.031h0a11.121,11.121,0,0,0,.57,1.063h0l0,.005h0l0,.006h0l.007.012h0l0,0,0,0,0,0,0,0,0,0,0,0,0,0,0,0,0,0,0,.007h0l0,.006v0l0,.006v0l0,.006h0l.1.151,3.48-2.238Zm.634.842-3.12,2.717h0l3.12-2.717Zm0,0-3.116,2.722h0l3.116-2.722Zm-1.782,4.018,2.626-3.2a7.225,7.225,0,0,1-.841-.816l-3.114,2.724.006.006,0,0,0,0,0,0,0,0,0,0,0,.005,0,0,.005.006h0l0,.005,0,0,0,0,0,0,0,0,0,0,.005.006,0,0,0,0,0,0,0,0,0,0,0,0,0,0,.011.012,0,0,0,0,0,0,0,0,0,0,0,0,0,0,.005.006,0,0,0,0,0,0,0,0,0,0,0,0,0,0,.006.006h0l0,.005,0,0,0,0,0,0,0,0,0,0,.005.006h0l.006.006,0,0,0,0,0,0,0,0,0,0,0,0,0,0,.005.006,0,0,0,0,0,0,0,0,0,0,0,0,0,0,0,0,0,0,0,0,0,0,0,0,0,0,0,0,0,0,0,0,0,0,0,0,0,0,0,0,0,0,0,0,0,0,0,0,0,0,.005.005,0,0,0,0,0,0,0,0,0,0,0,0,0,0,0,0,.007.008,0,0,0,0,0,0,0,0,0,0,0,0,0,0,.008.008h0l0,0,0,0,0,0,0,0,0,0h0l.013.015h0l0,0,0,0,0,0h0l.02.02h0l.005,0h0l.02.02h0l0,.005h0l.025.025h0a11.078,11.078,0,0,0,.891.816Zm3.022,1.77,1.5-3.855a6.962,6.962,0,0,1-1.049-.514L212.63,745.8c.119.071.238.139.358.205h0l.007,0h0l.045.024h0l.03.016h0l.007,0h0l.007,0h0l.03.016h0l.006,0h0l.007,0h0l.022.012h0l.007,0h0l.006,0h0l.006,0h0l.022.011h0l.006,0h0l.006,0h0l.006,0h0l.015.007h0l.007,0h0l.006,0h0l.006,0h0l.006,0h0l.015.007h0l.007,0h0l.005,0,0,0,.005,0h0l.006,0h0l.015.007h0l.005,0h0l.005,0h0l.005,0h0l0,0h0l.007,0h0l.006,0h0l.005,0h0l0,0,0,0,0,0h0l.005,0h0l.007,0h0l.006,0,0,0,0,0,0,0,0,0,0,0,0,0,0,0,.006,0h0l.007,0h0l0,0h0l0,0h0l0,0h0l0,0,0,0,0,0,0,0,.006,0,0,0h0l0,0,0,0,0,0,0,0,0,0,0,0,0,0,0,0,.008,0h0l0,0,0,0,0,0,0,0,0,0h0l0,0h0l0,0h0l.01,0h0l0,0h0l0,0h0l0,0h0l0,0h0l.018.008h0l.005,0h0l0,0h0l0,0h0l.005,0h0l.019.008h0l.006,0h0l.006,0h0l.006,0h0l.032.015h0l.006,0h0l.006,0h0l.026.012h0l.007,0h0l.007,0h0q.251.113.507.213Zm3.422.746.242-4.13a7.155,7.155,0,0,1-1.164-.165l-.919,4.034a11.274,11.274,0,0,0,1.841.261Zm3.486-.343-1.044-4a7.053,7.053,0,0,1-1.155.2l.367,4.121q.354-.031.706-.085h0l.042-.007h.023l.02,0h.086l.024,0h.009l.007,0h0q.46-.079.914-.2Zm3.208-1.406-2.237-3.481a7,7,0,0,1-1.032.547l1.626,3.8q.329-.141.651-.3h0l.031-.016h0l.007,0h0l.007,0h0l.023-.011h0l.007,0h0l.007,0h0l.023-.012h0l.006,0h0l.006,0h0l.022-.012h0l.006,0h0l.006,0h0l.006,0h0l.015-.008h0l.006,0h0l0,0,0,0,.005,0h0l.007,0h0l.006,0h0l0,0,0,0,0,0,0,0,0,0,0,0,0,0h0l.006,0,0,0,0,0,0,0,0,0,0,0,0,0,0,0,0,0,.009,0h0l0,0h0l0,0,0,0,0,0,0,0,0,0h0l.017-.01h0l.005,0h0l.005,0h0l.006,0h0l.024-.014h0l.006,0h0q.3-.169.6-.357Zm1.331-1-2.724-3.114-.006.005,2.721,3.117,0,0,.006,0Z" transform="translate(-124.182 -603.635)" fill="#cfe46b"/>
    </g>
    <circle id="Ellipse_6" data-name="Ellipse 6" cx="11.173" cy="11.173" r="11.173" transform="translate(422.699 231.541)" fill="#cfe46b"/>
  </g>
</svg>
